/* XPM */
static char *_df8c966f4714cabbc761ca6c5e6d4a5N1ZG0TQUEFIicVoW[] = {
/* columns rows colors chars-per-pixel */
"64 64 210 2 ",
"   c #282C1F",
".  c #213519",
"X  c #251B23",
"o  c #321F34",
"O  c #3F1F37",
"+  c #3A1D3C",
"@  c #272E25",
"#  c #2A2B26",
"$  c #2D252C",
"%  c #252E2A",
"&  c #2D2C2C",
"*  c #292325",
"=  c #352D25",
"-  c #32252C",
";  c #3A262E",
":  c #322C2D",
">  c #392B2B",
",  c #243123",
"<  c #2A3324",
"1  c #26322A",
"2  c #2C332C",
"3  c #32312D",
"4  c #2D2533",
"5  c #242E35",
"6  c #2D2B34",
"7  c #2E253B",
"8  c #2E2C3A",
"9  c #272236",
"0  c #332534",
"q  c #3B2533",
"w  c #332B34",
"e  c #392C34",
"r  c #34253A",
"t  c #3A253A",
"y  c #342B3A",
"u  c #3A2B3B",
"i  c #243131",
"p  c #2D3134",
"a  c #2B313B",
"s  c #27343C",
"d  c #333234",
"f  c #3B3334",
"g  c #32323B",
"h  c #3B313B",
"j  c #333834",
"k  c #40283E",
"l  c #44293A",
"z  c #342542",
"x  c #352B43",
"c  c #3C2C43",
"v  c #372D4D",
"b  c #3B2C4E",
"n  c #3C274E",
"m  c #363344",
"M  c #3B3246",
"N  c #36334C",
"B  c #3B324C",
"V  c #3A384D",
"C  c #2C2F50",
"Z  c #3D2655",
"A  c #372D54",
"S  c #3C2C54",
"D  c #3F275B",
"F  c #362E58",
"G  c #3D2D5A",
"H  c #363354",
"J  c #3C3254",
"K  c #3D315B",
"L  c #3E3C52",
"P  c #3C2D61",
"I  c #3C3161",
"U  c #42264D",
"Y  c #412D4F",
"T  c #42314D",
"R  c #422654",
"E  c #422D55",
"W  c #492B56",
"Q  c #43275B",
"!  c #422D5B",
"~  c #492D5A",
"^  c #423155",
"/  c #42325C",
"(  c #483358",
")  c #4D3A5D",
"_  c #4E3F56",
"`  c #53365E",
"'  c #543C5E",
"]  c #5B3C5E",
"[  c #563A59",
"{  c #60385D",
"}  c #422D62",
"|  c #472F6B",
" . c #453462",
".. c #4E3D64",
"X. c #4C3D68",
"o. c #543564",
"O. c #5B3664",
"+. c #543D64",
"@. c #5B3C65",
"#. c #5B356A",
"$. c #553E69",
"%. c #5C3D6A",
"&. c #543E70",
"*. c #5E3D70",
"=. c #613667",
"-. c #623B66",
";. c #63356B",
":. c #623C6B",
">. c #68396D",
",. c #633B72",
"<. c #6D3775",
"1. c #4F4057",
"2. c #4D415E",
"3. c #4F485A",
"4. c #53425C",
"5. c #59435E",
"6. c #57485F",
"7. c #4E4265",
"8. c #4F4269",
"9. c #4F4965",
"0. c #534265",
"q. c #5A4265",
"w. c #5A4965",
"e. c #55436A",
"r. c #5B426B",
"t. c #534868",
"y. c #5D486D",
"u. c #524966",
"i. c #544471",
"p. c #5B4372",
"a. c #604164",
"s. c #62416C",
"d. c #60486C",
"f. c #634371",
"g. c #705777",
"h. c #7A557D",
"j. c #755B7C",
"k. c #7A5B7E",
"l. c #7A5978",
"z. c #75627C",
"x. c #79617E",
"c. c #746177",
"v. c #815E7C",
"b. c #815579",
"n. c #84687F",
"m. c #7A4E89",
"M. c #775683",
"N. c #7D5584",
"B. c #765B84",
"V. c #7C5B84",
"C. c #755489",
"Z. c #7E558A",
"A. c #765C8B",
"S. c #7D5C8A",
"D. c #7D5593",
"F. c #7E5D91",
"G. c #756483",
"H. c #7C6284",
"J. c #77618A",
"K. c #7D618B",
"L. c #7B6D87",
"P. c #7D6292",
"I. c #814D84",
"U. c #825685",
"Y. c #825B85",
"T. c #8B5C87",
"R. c #83558C",
"E. c #88568F",
"W. c #835B8C",
"Q. c #895B8D",
"!. c #855591",
"~. c #895692",
"^. c #845B92",
"/. c #8A5B92",
"(. c #875D98",
"). c #8C5C9A",
"_. c #905B91",
"`. c #826386",
"'. c #896284",
"]. c #82628B",
"[. c #89618E",
"{. c #826987",
"}. c #836292",
"|. c #8A6192",
" X c #B996AD",
".X c #B49CAB",
"XX c #BB9BAC",
"oX c #B59AA8",
"OX c #B794B2",
"+X c #BB95B6",
"@X c #B59BB4",
"#X c #BC9BB4",
"$X c #BD94BC",
"%X c #BD9ABA",
"&X c #BB9BBA",
"*X c #B697BB",
"=X c #B7A2A7",
"-X c #B9A1AE",
";X c #BAA0AA",
":X c #B6A3B3",
">X c #B9A1B1",
",X c #BCA3B4",
"<X c #C29BB5",
"1X c #C19DBD",
"2X c #C39BBB",
"3X c #C494B9",
"4X c #BF96C2",
"5X c #C39CCB",
"6X c #C499C3",
"7X c #C4A1C8",
/* pixels */
"< @ w u 0 e : : & d & f & w y 8 y y - e   = d 6 w & 1 1 & : < @ 3 & : : & 3 : : : : 3 # : & : : 2 % & # : w % 6 w 0 : f   , g 8 ",
"< # u u r t - : $ : w u w e 0 y 4 0 0 e = = : w u 4 p j X - w d : - e e - : : : : : : : f e w w : : : e q 0 w w u o e $ 2 j 4 r ",
"# f z.j.7X1XoX>X:X:X>X-XXX;X.X>X>X>X-X;XoX=X.X:XV.x.0 0 `.{.@X@X,X.X.X>X>X-X,X.X.X.X,X.X.X.X.X>X>X.XoXXX#X#X,X@X#X&Xv.n.- $ {.S.",
"e 0 {.M.4X2X#X,X@X@X#X XXX<X#X#X#X#X#X XXX#X@X&XY.Y.t u Y.h.7X*X1X&XOX&X+X#X2XOX1XOX1X#X1X1X1X&X%XOX#X<X+X2X%X&X+X6Xb.v.q q l.N.",
": 0 *X5XQ.U.Y.l.Y.Y.W.T.T.T.U.U.Y.U.W.Y.'.'.W.N.$X2Xt t <X3XY.W.Q.Q.Q.W.R.U.Q.Q.=.=.Q.Q.U.R.E.W.%.%.W.[.N.W.h.Y.U.h.<XXX; l #X1X",
": u &X5XN.R.U.Y.W.S.R.R.R.U./.R.W.W.R.R.U.N.^.Z.6X2Xt q <X3XU.Y.R.R.R.R.E./.N.E.;.;.E.E.R.R.R.E.%.%.S.S.N.W.V.K.W.[.2X#X; - #X&X",
"3 $ x.M.W.Q.s.@.%.*.#.,.,.,.(.S.%.@.O.:.:.:.}.S.N.`.; q '.N.W.S.s.:.:.-.M.Y.O.-.s.O.-.-.N.W.:.@.r.+.5.q.%.%.+.' o.@.V.x.w h G.K.",
"# e x.V.W.W.o.r.%.%.%.,.#.o.}.A.@.q.@.r.$.o.P.A.S.V.w q k.W.C.F.@.o.q.@.V.H.' q.] q.q.' H.H.` q.0.w._ 5.r.+.e.0.r.%.K.j.y 6 G.A.",
": w x.].O.:.q.0.0.0.e.e.q.0.e.0.0...p.&.! S } } B.H.6 y j.S.Q } S ( +.q.q.0.e.0.q.0.e.e.+.+.e.+.e.0.e.r.r.+./ S $.%.@.4.y 7 e.%.",
": 0 H.S.O.@.+.) 0.0.0.0.0.4.2.2.t.7.i.&./ G P P B.G.4 4 H.K.D } ! ( ..0.0.0.0.e.0.+.e.e.+.0.e.e.e.e.+.$.%.+./ G $.%.@.5.m x +.$.",
": u ' %.W.S.r.y.e.../ S ^ ^ J J J v G / D G I G ! b g m n Q | P D S ^ / ^ S ^ ^ e.e.e.../ S S S / E E E ! } G S D ! E E 8 4 ^ ! ",
": 0 ' s.W.M.r.) e.../ S S S G K J A G / G K / G S ^ 6 4 ( ! D  ./ / ! G S S S S e.0.e.../ G G G G G S S G P K K G / S c d p B E ",
"d w ^ E @.o.q.0.^ J G G G G G G K K G G S A G A z y d & y r T S G G G G G G K G G G / / G G / K P I I G G G H H J J u 6 1 @ & 0 ",
"@ d c Y d.q.4.4.M B J J J J J J H J J J B B J J r & # @ e q M M J J J J J J J J J J J J A A J A J J K J J J H H V M y & , , & w ",
"1 % y x r 0 e # w w 6 6 4 4 y y 8 y y w w & 6 6 w f < < : - w y y y 6 6 6 6 6 6 w 6 6 w 6 y y 6 6 6 w w w y 8 8 y y w & , < 6 y ",
", j 4 r c t 0 e w w 0 y e t y 0 t y 0 0 e e 0 y u $ & d 0 t c 4 y 0 0 0 0 0 0 0 w : : : & & 2 : w w q e t t y y r r t y : w t r ",
"< $ w.@.V.h.`.V.].M.W.Y.N.Y.Y.Y.Y.W.N.N.Y.V.Y.Y.N.W.k.k.Y.Y.h.V.V.V.W.U.Y.V.Y.Y.v.l.; e * d & e H.h.W.W.U.N.[.V.N.W.V.V.H.k.`.N.",
"3 w ' O.Q.Q.Q.N.R.^.R.R././.R.E./.R.R./.R././.R.R.R././.N.E.W.|.S.S.R.I._./.R.Q.Q.Y.O q e f $ o S.!.!.E.~.E.R.E./.E.W.Z.R.E.E.Q.",
"& y K.F.E.N.W.^.^.D.E./.R.R.^.W.R./.E.R.R.R.R./.E.R.Z.Z.W.W.#.O.%.%.W.Q.U.E.R.R.R.Q.V.k.r 7 G.K.^.R.!.~.R.R.^.Z.R.S.%.%.%.%.S.S.",
"d 4 K.D.R.E.W.Z.^.C.^.E.E./.W.W.W.W.W.Z.^.W.C.W.^.S.W.N.W.W.%.%.@.@.K.Y.R./.W.^.Z.W.W.`.z 7 S.C.S.W.W.^.R.W.W.W.W.W.%.%.%.%.W.W.",
"6 y K.C.|.E.O.:.#.%.O.O.W.W.` a.@.O.V.V.%.O.s.@.%.o.S.V.` @.@.r.%.+.r.o.E.^.#.%.(.(.R.W.r r K.^.S.S.@.@.N.S.O.@.%.o.r.+.o.q.O.q.",
"f y K.Z.W.Y.O.O.%.r.s.@.V.K.' r.@.r.K.V.r.+.@.@.%.@.H.K.q.q.+.o.r.e.e.$.(.!.%.$.A.(.R.h.0 0 M.^.].V.@.%.].].r.+.@.+.e.0.+.q.+.@.",
"* 0 H.W.O.O.Y.].@.+.] ] @.q.' ' @.+.$.o.r.r.R E %.$.+.+.+.+.E ( E S / E #.%.+.e.! Q W.{.- : ].S.R ! $.%.+.o.r.r.$.r.S ^ E R r.+.",
": h j.W.-.] {.k.+.d.' q.q.o.q.0.e.+.r.$.e.$.R ! $.$.e.r.$.+./ S S E E R *.%.+.0.! Q A.g.f : V.S.! / $.e.r.+.r.+.e.0.^ S S E +.e.",
": 0 V.W.O.-.@.@.+.r.+.r.@.r.E E e.+.r.e.E S / E S / +.e.e.0.0.e.0.q.' r.%.r.B B ! ! ! ^ : : W ! ! / S E $.r.+.e.E ^ A J 0.e.+.e.",
": 0 H.S.O.] ] ` e.e.) e.+.$.! S e.0.e.0.E S ^ S E ( ..0.0.0.0.e.0.0.` q.$.$.J v ! G G J 6 & E E S ^ S E +.e.+.e.S J S ^ 0.e.0.r.",
"& u +.#.W.V.r.y.+.e.e.e.! } G ! S S E ^ S S / S S S / / ^ S ^ / 0.e.@.r.! / A J G G K V 6 6 J G S / S S / E S E S J S A / S S E ",
"& y +.p.K.B.q.) ..e.e.e.D D G / / S S / G K / G / / ! G S S S S X.e.e.%.D G J K G S A m p 6 V J J / K G / G S / K K K K K G S / ",
"p 6 ^ R +.' 0.u.J J v ^ S G K S K K K G G G G G G G G G G K G G K S S ^ S G J A J B x w % % y z A G G G G G G K A F G G K K K / ",
"% p v S w.6.4.3.V N M B B J J B B J J J J J J J K J S J J J J J J B M B T ^ J V B M w & 1 1 w w J J J J J J J A J J J J J J J A ",
"1 % y x r 4 f $ 6 p d 6 6 4 6 8 w d w 6 w 6 6 6 y y y 6 w 6 6 6 4 6 p 6 0 0 7 8 y y : : 1 1 d e 6 6 6 w w w y w 6 6 6 6 6 w y w ",
", j 7 z c t 0 y y y 0 0 u y r y w w 0 w w w & & w w 0 0 0 0 0 y w y w 0 t t r x r u t q w 4 t t y w w 3 & & : : 0 w y e w w 0 0 ",
"1 d e.@.[.V.V.S.N.V.V.V.S.B.K.V.V.`.h.`.u w d # e 0 H.k.V.Y.Y.Y.N.[.V.V.N.Y.N.W.N.Q.Y.U.W.N.M.N.Y.l.e 3 % % > q k.].M.V.V.V.h.U.",
"2 w %.#.R.U.E.!./.R.E.W.W.W.}.W.W.E.R.E.+ 0 6 w y t N.W.R.R./.E.R./.R.^.^.^.R.E./.R.E./.R.R.)././.[.r * j p ; l Y./.Z.^.^.W.R.E.",
"# y S.!.|.U.^.^.N./.E.Z.^.N.O.:.S.W.!./.V.x.y 0 z.V.^.R.^.R.!.^.E.R.R.W.#.%.W.Z.R./.R.Q.^.Z.R.R.!.R.S.L.& 6 {.Y.Q.R.R.W.$.#.W.U.",
"3 0 S.R.U.U.W.W.E.W.W.Z.}.K.@.%.S.W./.N.S.H.o u B.W.W.^.(.(.Z.^.S.W.S.}.%.%.^.S.^.W.R.Z.W.^.W.W.E.~.D.J.y 0 M.R.R.W.W.}.%.%.].N.",
"& 4 S.^.Q.W.W.S.:.#.W.^.o.@.@.+.%.o.W.^.W.].t t W.C.^.R.o.%.%.%.M.].@.+.f.$.#.%.%.o.W.W.O.@.s.%./.~.D.A.y 0 ^.).Z.W.O.@.p.$.+.@.",
"d y }.!.N.U.N.^.%.%.W.W.+.+.r.r.e.r.}.W.S.j.t k W.!./.W.*.p.+.+.S.].%.o.e.+.+.r.%.@.].S.%.@.+.@.Q.R.(.A.y u Z.D.W.[.O.o.e.0.+.r.",
"& 4 M.R.T.W.%.@.s.O.W R e.r.+.+.0.' O.O.}.].0 q M.Z.-.O.+.e.5.w.` +.e.r.E ^ +.e.r.o.U U +.y.+.@.{ { S.H.0 0 W.^.O.O.@.r.S J +.e.",
": y ].R.U.Y.@.r.@.@.~ R e.0.0.0.0.5.a.@.S.g.0 0 S.S.O.a.+.+.6.1.q.e.e.0.b ^ 0.0.+.r.E ( e.' q.' a.] H.z.w u M.S.s.@.@.+.v J 0.e.",
"& 0 S.W.:.O.K.B.r.+.r.e.E S e.0.0.w.] q.R b 6 6 ^ E +.q.o.0.6._ ) e.S ^ ^ S e.0.+.0.e.+.E b e.0.5.5.T c w y E ~ o.q.@.+.0.7.A J ",
"& y M.Z.-.@.B.J.r.+.%.e.S ^ 0.0.0.0.' @./ J p 6 J / +.+.e.e.0.w.r.r.S b J J 0.0.y.+.e.+.E ( 0.' 4.4.^ B 6 8 S Q e.e.q.q.0.0./ S ",
"& 0 B.W.:.q.r.$.+.r.+.e.S A S S e.+.~ ~ A J 5 5 H K G ! $.$.S Y b E S ( 7.0.e.0.S b +.y.) +.e.0.J K G K 6 g / } S J +.e...7.0.0.",
"d 4 K.S.O.' r.+.0.r...e./ / G / e.e.! ! K J s s H K G ! i.i.! S E E / / 8.e.e.e.^ ( +.e.e.e.0.t.G G P K 6 6 G G S J e.e.e.0.e.e.",
"# y +.o.].H...e.+.0.S / A G S ! G K D E J N 5 5 N A ! D G ! G / / G G A A K S / E E R R +.e.S S K I P K 6 6 J G H H E E e...^ E ",
"# 6 r.%.].j.e.8.e.0.! / G / G ! G K ! ! J m p p V v ( ! A G G G D G / K / / G / S / S E r.0.A K G G b M & d B J H J S R e.e.^ ( ",
"2 6 E R q.' ^ A S ^ S ! G G ! G K J G S r 6 & & w r b ! ^ / G G G / G G G G G / G  .S S / S S K / ^ y e & & : y H K ! ! ! / S E ",
", 2 B E 5.4.B B B B ^ J A v ^ J V N ^ B y & 2 & : y T b B B v J A J A J J J J J v J v J B B J A S B : = : : : 6 V N S ^ b ^ J ^ ",
". < $ u 0 u 6 6 w 6 y 8 y 6 y y 8 w 6 6 w & 2 & & & w f 6 6 y 6 6 6 6 g 6 6 x r 6 & 6 6 % g 7 c y w w & w d & w 6 y 6 y y w 6 6 ",
"< 3 e r t 0 $ w 0 y 0 0 y w y y 0 0 t 0 0 0 0 0 0 h y 0 y 0 t h 0 h y 0 w 0 t c w @ 2 2 1 % y r r y u t y 0 0 y u 0 u u 0 0 u y ",
"# 0 [ O.[.W.H.H.k.].[.Y.`.j.Y.Y.W.Y.W.Y.Y.Y.Y.W.W.N.N.Y.W.Y.W.M.Y.V.V.V.H.V.W.k.u * & # & h c.V.S.W.N.S.W.W.W.N.M.S.S.M.].].M.S.",
"y t :.;.R.Z.S.N.W.Z.R.R.R.R././.E.E.~.~.Q.Q.R.R.R.E.R.R.~.E./.R.R.E.R.R.W.N./.R.U o e f $ r {.V.^.^.Z.R.^.R.^.R.R./.R.!.^.R.!.^.",
"6 z Z.^.(.!.W.Z.:.;.~.~.R.E.~.R.^.^.R.R.W.R.W.W.R./.>.O.^.R.N.E.R./.<.;./.R.I.E.R.`.0 0 {.Y.N.N.Q./.Q.Q.R.R.E./.E.R.Q.Q.;.=.|.R.",
"y r S.!.m.Z.W.S.:.;.!.!.E.Q.E.!.Z.W.N.W.W.N.W.M.W.S.%.O.W.S.^.W.W.R.;.;.W.W././.E.W.0 t N.E.^./.N.U.U.N.W.W.N.Y.W.N.N.W.:.O.W.M.",
"w 4 V.W.E.W.V.k.|.N.>.;.U.T.Q.R.W.].%.@.@.@.].].@.@.r.%.%.o.S.B.@.@.:.%.@.' S.N.!.W.y u W.!.R.Z.f.%.r.@.B.V.%.r.%.r.%.@.@.+.r.r.",
"w 0 `.U.W.Y.V.`.M.|.:.=.[.N.U.E.Z.K.+.r.r.+.K.B.r.@.@.@.%.@.].K.q.0.+.+.0.0.K.S.R.N.w w N.~.^.W.+.o.@.@.B.K.o.+.r.` r.@.+.r.+.e.",
"w 0 H.W.N.W.@.q.%.#.S.S.W W S.Z.~ R r.r.+.r.%.%.%.+.%.+.%.r.E E 0.0.e...7.u.b ~ S.V.6 6 V.R.W W +.r.$.r.r.+.$.r.e.e.$.r.E S r.+.",
"& y V.S.^.].o.+.$.r.P.A.! ! A.P.! ( e.$.e.r.o.r.r.+.r.r.$.$.R E 0.) e.e.7.9.^ E S.H.& & H.^.E E y.+.+.+.o.+.e.+.e.e.+.+.( E r.+.",
"d 0 H.N.%.%.+.e.r.+.$.e.S S  .Z S S S S 0.e.S ^ S S 0.0.0.e.0.0.r.q.r.$.v v S E E E 6 a b ! ! ! S b +.r.+.q.e.0.e.0.( ^ b E 0.0.",
": 0 H.W.:.:.+.+.+.p.e.e.J S G / ^ ^ S A t.t.J J ^ J 0.7.0.7.t.0.+.q.@.e.J A ( ~ E b 4 8 J / P G / E e.0.0.e...0.0.0.^ S ^ ^ 7.0.",
"w e ] -.N.N.q.q.r.%.R R E / ! ! A G ! G ! K A G G S / / G S G S +.@.R E J J E Z E T x x J A I P / S K S ..e.A S S ^ S A K S S J ",
"& u [ :.W.W.q.' +.+.! S S S S ! G G / / G G / / G G ! G ! G / ! r.r.R S J J ! ! x B 7 9 L J A  .A K K K i.e.S / G / K K / K G G ",
"i 4 ^ ~ o...^ J K / G K / K K G / G G G K K / G G K S G G G G G Z ! G K H H G ! x 6 y y 6 4 ^ b !  .! A ! ! A ( G G G G S G G K ",
"i a A E p.e.A H K K G F K F I G G K G G K G G K S / A K K K G /  .G G K C H / S 7 y 0 $ j 6 M ^ R ! S ! ! ! ! D ! D ! ! ! / ! G "
};
