/* XPM */
static char *P_removebg_preview__1_1736032033[] = {
/* columns rows colors chars-per-pixel */
"64 64 249 2 ",
"   c #2D0300",
".  c #2C0C00",
"X  c #2B0A05",
"o  c #330401",
"O  c #3B0402",
"+  c #340B00",
"@  c #3B0C02",
"#  c #39070B",
"$  c #291605",
"%  c #351301",
"&  c #3B1402",
"*  c #351A02",
"=  c #3B1C02",
"-  c #3B1B0C",
";  c #36180D",
":  c #371413",
">  c #3A2508",
",  c #392617",
"<  c #3C2821",
"1  c #430303",
"2  c #430A03",
"3  c #440209",
"4  c #4A0309",
"5  c #460709",
"6  c #421303",
"7  c #431A03",
"8  c #4C1C00",
"9  c #461909",
"0  c #541C00",
"q  c #5B1C00",
"w  c #511400",
"e  c #461A12",
"r  c #531814",
"t  c #6A1B00",
"y  c #741C01",
"u  c #442402",
"i  c #4C2400",
"p  c #4B2B01",
"a  c #44230D",
"s  c #482908",
"d  c #532502",
"f  c #5A2301",
"g  c #532B00",
"h  c #5B2A00",
"j  c #542A0B",
"k  c #4D3300",
"l  c #493603",
"z  c #543501",
"x  c #5B3301",
"c  c #5C3B01",
"v  c #583808",
"b  c #452A12",
"n  c #482615",
"m  c #542B18",
"M  c #4A3519",
"N  c #573416",
"B  c #642501",
"V  c #6C2301",
"C  c #632B00",
"Z  c #6D2B03",
"A  c #69280A",
"S  c #792304",
"D  c #7B2C04",
"F  c #7A2A0B",
"G  c #762608",
"H  c #633C02",
"J  c #6B3C01",
"K  c #673507",
"L  c #783508",
"P  c #782B14",
"I  c #653A16",
"U  c #7A3514",
"Y  c #662916",
"T  c #483527",
"R  c #573826",
"E  c #493127",
"W  c #66382B",
"Q  c #6D3E36",
"!  c #5C4501",
"~  c #5F4605",
"^  c #5E4D17",
"/  c #634401",
"(  c #6A4303",
")  c #654B02",
"_  c #684809",
"`  c #764908",
"'  c #6D5305",
"]  c #735503",
"[  c #795709",
"{  c #664517",
"}  c #775716",
"|  c #764C19",
" . c #726515",
".. c #5A4B37",
"X. c #5C492A",
"o. c #704E2F",
"O. c #776624",
"+. c #79643B",
"@. c #7D7135",
"#. c #6A594E",
"$. c #685343",
"%. c #7D6B5A",
"&. c #7B6F47",
"*. c #6E5967",
"=. c #6F5A68",
"-. c #715C69",
";. c #796767",
":. c #7D6A73",
">. c #5D5141",
",. c #801D00",
"<. c #842A08",
"1. c #872E13",
"2. c #843314",
"3. c #873617",
"4. c #8C3710",
"5. c #883C22",
"6. c #874819",
"7. c #895716",
"8. c #8C540C",
"9. c #87660D",
"0. c #886718",
"q. c #977817",
"w. c #937011",
"e. c #A47E13",
"r. c #904F27",
"t. c #856929",
"y. c #936726",
"u. c #8A7527",
"i. c #977828",
"p. c #8A7639",
"a. c #967735",
"s. c #886B37",
"d. c #A27B34",
"f. c #A57824",
"g. c #835748",
"h. c #897649",
"j. c #846B4F",
"k. c #847369",
"l. c #95776D",
"z. c #926475",
"x. c #837278",
"c. c #AD707B",
"v. c #AA7A79",
"b. c #A17D4B",
"n. c #968616",
"m. c #A78619",
"M. c #B38819",
"N. c #B9941E",
"B. c #B1870F",
"V. c #99862C",
"C. c #9C8635",
"Z. c #8C8535",
"A. c #A88829",
"S. c #B78B24",
"D. c #BA9A27",
"F. c #A78736",
"G. c #B48939",
"H. c #AB9536",
"J. c #B69838",
"K. c #A8902E",
"L. c #B9A536",
"P. c #BFA125",
"I. c #C29936",
"U. c #C1992A",
"Y. c #C4AB2B",
"T. c #C8A739",
"R. c #C9B338",
"E. c #D8BA39",
"W. c #CFB52D",
"Q. c #E2C53C",
"!. c #9A8649",
"~. c #898146",
"^. c #A68947",
"/. c #A89746",
"(. c #B89945",
"). c #B99C55",
"_. c #A98C54",
"`. c #BBA648",
"'. c #BBA356",
"]. c #9D8877",
"[. c #9B8961",
"{. c #A78B67",
"}. c #A8966D",
"|. c #A48B77",
" X c #B69A79",
".X c #A99E71",
"XX c #B5A76F",
"oX c #C59A44",
"OX c #CC9C54",
"+X c #C6A747",
"@X c #D1AE48",
"#X c #CAB24B",
"$X c #D4B849",
"%X c #C7A955",
"&X c #D2AF52",
"*X c #CCB557",
"=X c #DBBA53",
"-X c #D6B858",
";X c #E0BB4C",
":X c #E2BB58",
">X c #D8BB66",
",X c #D1B06D",
"<X c #E1B974",
"1X c #DAC349",
"2X c #DBC35C",
"3X c #DBC659",
"4X c #E4C95A",
"5X c #EAD25A",
"6X c #ECCC51",
"7X c #D8C565",
"8X c #DCC577",
"9X c #E4CB66",
"0X c #E7C969",
"qX c #E8D569",
"wX c #F2D768",
"eX c #E5CA75",
"rX c #ECD474",
"tX c #EDDC7B",
"yX c #EBD974",
"uX c #F4D879",
"iX c #F3CF6E",
"pX c #EEE17A",
"aX c #F9E37B",
"sX c #F4E169",
"dX c #B77F83",
"fX c #B7898C",
"gX c #AA9384",
"hX c #B79689",
"jX c #BC9C93",
"kX c #AC8988",
"lX c #B7A287",
"zX c #C39490",
"xX c #C49B95",
"cX c #C79F9A",
"vX c #C39E8F",
"bX c #C7A39A",
"nX c #CFB094",
"mX c #CCB8A5",
"MX c #D1B1A5",
"NX c #F9D886",
"BX c #E9D688",
"VX c #FCE384",
"CX c #FAE988",
"ZX c #F8E989",
"AX c #DCCABE",
"SX c #D5CBB2",
"DX c #D9CAA9",
"FX c #E1C8AA",
"GX c #EDD9CC",
/* pixels */
"*.*.*.*.*.*.*.*.*.*.*.*.*.*.*.*.-.=.=.*.*.*.*.*.*.*.*.*.*.*.*.*.*.*.*.*.*.*.*.*.-.*.*.*.*.*.*.*.*.*.*.*.*.*.*.*.*.*.*.*.*.*.*.*.",
"*.*.*.*.*.*.z.c.c.c.c.dXzXzXzXzXzXzXzXzXzXzXzXzXzXzXzXzXzXzXc.*.*.*.*.*.*.*.z.c.c.c.c.dXzXzXzXzXzXzXzXzXdXc.c.c.c.z.*.*.*.*.*.*.",
"*.*.*.*.*.*.c.c.c.c.c.zXzXzXzXzXzXzXzXzXzXzXzXzXzXzXzXzXzXzXzX*.*.*.*.*.*.*.c.c.c.c.c.zXzXzXzXzXzXzXzXzXzXc.c.c.c.c.*.*.*.*.*.*.",
"*.*.*.*.*.z.c.c.c.c.c.zXzXzXzXzXzXzXzXzXc.zXc.c.c.c.c.zXzX*.*.*.*.*.*.*.*.z.c.c.c.c.c.zXzXzXzXzXzXzXzXzXzXc.c.c.c.c.z.*.*.*.*.*.",
"z.c.c.c.c.c.c.c.c.c.c.zXzXzXzXzXzXzXzXzXzXMXzXMXMXMXzXzXzXzXdX*.z.c.c.c.c.c.c.c.c.c.c.zXzXzXzXzXzXzXzXzXzXc.c.c.c.c.c.c.c.c.z.*.",
"c.c.c.c.c.c.c.c.c.c.c.zXzXzXzXzXzXzXzXzXzXzXzXzXzXzXzXzXzXzXzX*.c.c.c.c.c.c.c.c.c.c.c.zXzXzXzXzXzXzXzXzXzXc.c.c.c.c.c.c.c.c.c.*.",
"c.c.c.c.c.c.c.c.c.c.c.zXzXzXzXzXzXzXzXzXzXzXzXzXzXzXzXzXzXzXzX*.c.c.c.c.c.c.c.c.c.c.c.zXzXzXzXzXzXzXzXzXzXc.c.c.c.c.c.c.c.c.c.*.",
"z.c.c.c.c.c.c.c.c.c.c.dXzXzXzXzXzXzXzXzXzXzXzXfXzXzXzXzXzXzXc.*.z.c.c.c.c.c.c.c.c.c.c.v.zXzXzXzXzXzXzXzXdXc.c.c.c.c.c.c.c.c.z.*.",
"*.*.*.*.*.*.*.*.*.*.=.=.=.*.*.*.-.x.k.j.k.;.;.*.=.=.=.=.*.*.*.*.*.*.*.*.*.*.*.*.*.*.*.*.*.*.*.*.*.*.*.*.*.*.*.*.*.*.*.*.*.*.*.*.",
"c.c.c.c.c.c.c.c.c.c.dXzXzXxX[.&.h.h.h.s.s.s.&.o.j.kXMXzXzXzXzXzXc.c.c.c.c.c.c.c.c.c.dXzXzXzXc.*.c.zXzXzXzXdXc.c.c.c.c.c.c.c.c.c.",
"c.c.c.c.c.c.c.c.c.dXzX{._.!.u./.F.C.Z.O.^ s j w 3 3 m o.l.hXzXzXc.c.c.c.c.c.c.c.c.dXzXzXzXzXzX*.zXzXzXzXzXzXdXc.c.c.c.c.c.c.c.c.",
"zXzXzXzXzXzXzXzXzXgX{.,XXX`.J.G.9.( 8 p 8 d A P 5.U L C d 7 u u $.|.jXzXzXzXzXzXzXzXzXzXzXzXzX*.zXzXzXzXzXzXzXzXzXzXzXzXzXzXzXzX",
"zXzXzXzXzXzXzXc.v.lXnXZX3X&XF.J h f t 1.3.1.S U Z J ( 8.[ w.q.i.0.t.o.O.&.].jXkXc.zXc.zXzX*.*.*.zXzXzXzXzXzXzXzXzXzXzXzXzXzXzXzX",
"zXzXzXzXzXzXMXhXnXBXpX9X7Xi.d h q A 3.S ,.y 4.7.G.(.(.J.A.A.q.q.i.a.a.t.| u = . ..j.jXcXzXzXfX-.zXzXzXzXzXzXzXzXzXzXzXzXzXzXzXzX",
"zXzXzXzXzXzXhX.XZXZXCXuXd.C 0 A 3.G q C 8.oX4XwX1X=X@XT.J.S.f.i.[ / g 7 0 0 Y P P f 0 p { h.lXx.zXzXzXzXzXzXzXzXzXzXzXzXzXzXzXzX",
"zXzXzXzXjXjX}.BXBXZXtX'.| 0 Y U P y ` f.0XtXqX4X4X3X$X(.(.f.` h 8 h f U U 3.1.F F D 6.y.u.u.O. .&.|.xXxXzXzXzXzXzXzXzXzXzXzXzXzX",
"*.*.*.*.*.&.].ZXpXpX8X^ { w 2.<.L C G.yXtXpXZXpXyX7X7X*XO.x w B S <.4.D P G t ` 7.A.I.e.w.K.u.u.+.{ M E ..;.x.=.=.*.=.=.=.=.*.*.",
"c.zXzXzXMX XBXpXqXaX'.! 6 q 3.2.t d.iXuXZXBXZXpXpXeX7X} x h q P 4.y <.D Z 6.^.G.T.N.B.m.A.9.0.( | I d & . . , $.hXzXzXzXzXzXc.*.",
"zXzXzXzX|.nXpXqXqX$X! = 7 Y P G h ,XVXrXZXZXZXZXqXZXC.x h q 3.P F 1.<.L f.:XiX$X1XY.U.T.F.J I 6 @ O O @ O + # - < kXzXzXzXzXzX*.",
"zXzXzXzXj.'.L.1X5X$X' z i 6 w d | NXrXwXrXuX9XyXqX>Xz x h G 1.y 2.t L oXNXuX5XsXW.Q.R.%XJ |   @ o @ O 1 5 3 @ # : < jXzXzXzXzX*.",
"zXzXzXzX XBXJ.e.q.+X2X`.F._ H 6 u.eXqXwX4X4X4XiXaXw.z H t 3.,.1.U J oXNXCXyX3XsX1X1X=X/ _ 6 2 o o o o O 3 4 5 # X $ #.xXzXzXdX*.",
"zXzXzXzX{.BX0XiX@XA.H.V.*X+X(. .(.2X5X1X$X4X5X4X9X/ ( K t 1.1.1.0 ^.ZXNXqXCXpXqXuXqX9.g 6 @ O O : 9 3 3 3 4 3 O X < < :.*.*.*.*.",
"zXzXzXzX{.BXiX0X+X[ H.A.A.q.J.-X#X+X-XL.Y.W.E.E.T.c _ I A V r.y J >XNXtXCXCXpXCXBX(.k d @ O # # o o O 3 4 4 4 2   , E ].zXzXzX*.",
"c.zXzXzX{.,XNX0X>Xp k ' K.@XJ.q.w.w.`.#XT.W.W.6X(.g v i 0 U P t F.VXyXCXaXqXCXtXeX' p & # # 3 # # O 3 3 4 1 4 1 O X , l.zXzXc.*.",
"*.*.*.*.k.XXuX9X&X/ _ u H h a.'. .] _ } 0.L.$X$X*Xp p u N & A K %XNXuXVXCXaXqXpX`.x j   @ # # O O @ 2 @ 2 O O     % T T =.*.*.*.",
"zXzXzXzXhXXXrXqX7X! v 8 U Z 0 7.A.[ a.a. .~ ' H.>XBX'.O.| ~ 8 / 0XuX=XiXwXwX1XqXu.p a o # o O o @ + o o + + & - E b , ..mXMXzXjX",
"zXzXzXzXhX~.yX3X*X) v i G A r.<X:XJ.H.a.V./.u.[ ) O.(.8X3XL.q.e.5X6XE.E.Q.Q.1X3X_ p : # # # o o X X . * * = b M M , $ ].zXzXzXzX",
"c.c.c.c.dX@.7X1X`.! { d P t ,XNX&XiX7XBX`.u.V.)._.! ! n.n.L.5X$XE.Q.E.Q.Q.Q.Q.@Xz N X X   o o @ + & e b b b a > * > $ jXzXzXzXzX",
"c.c.c.c.c.+.#XT.#X) v 0 P V OX-XVXa.= !.uX1XD.w.! u ~ 7X`.n.9.M.;X1X6XE.W.Q.E.A.p N . $ + & 9 9 n m n a a 7 % . a , , xXzXzXzXzX",
"c.c.c.c.dXo.+XD.+X' I w y D 7.0X,X_ . p `.$X;X:Xa.v z z J.2XiXI.w.B.N.Y.1X5X4Xi.= N = a b j s n a = * @ o O + + b ; #.zXzXzXzXzX",
"*.*.*.z.c.j.H.S.J.[ I j P P j /.rX .. N ,X-X:X6XOXx { & c ( I.oX1XW.D.m.e.A.(.J = s s l p s ; - . $ % 6 6 @ @ & > $ hXjXzXzXzXzX",
"*.*.*.*.z.g.(.e.L.[ j 8 P 1.K } '.F.u _.>X-X;X;XuX} g o.8 K t 8.$XU.$XI.e.q.y.= u s m p 7 %   . . % n o.W 9 @ ; b $ jXzXzXzXzXzX",
"*.*.*.*.=.j.i.e.J.] v i P S P _ %X0.l ^.).&X@X@XeXa.i 8 f D <.8.T.U.N.M.M.;Xd.c I = 2 O 5 r o o a a R N 8 O X b ; >.:.*.*.*.*.*.",
"c.zXzXzXzXhXy.M.A.[ ~ 8 S 2.U K i.C.i.%X(.+X@XT.(.} h h V D <.7.U.P.M.M.B.T.i.z { & 2 3 3 4 O m o.m 7 # N 9 & a $ k.*.*.*.*.*.*.",
"zXzXzXzXzXjXa.q.f.[ J B 1.y C | H.V.q.J.T.J.+XK.[ x h F S G V 7.T.U.N.M.M.+X0.k { % 1 3 3 1 @ o.9 % o   o.9 % ; $ kX-.*.*.*.*.*.",
"zXzXzXzXxX].t.'.%X0.h 0 1.1.C r.<X7X`.9.8.w.J. .k i C F S G B y.@XU.S.S.N.T.0.z I @ O 4 4 2 6 o.+ + @ & W X ; , < fXz.*.*.*.*.*.",
"zXzXzXzXh.l > c u.t./ h 3.3.G 7.>X>X0X0XT.q.w.l z i Z L y F Z a.:XT.I.I.U.+X] z N + O 4 4 2 8 g.+   o r E + - ; #.c.c.c.c.c.z.*.",
"zXzXzXzX!.7X).z p l u i A F V 6.-X-X&X:X;X:X*X_ v g Z S y F C d.>XT.@XI.T.I.) x v o 1 2 1 1 9 g.m - e W e & - $ kXc.c.c.c.c.c.*.",
"zXzXzXzXt.H.&X>Xi.) . + 0 Z h 7.&XT.&X0X4X@X%X} v d L S t F K ^.0X&X=X=X#X+X/ c d o 1 1 1 1 2 Q #.o.W m o + - T fXv.c.c.c.c.c.*.",
"c.zXzXzX@.C.H.`.8X<X^.{ h x g ` I.I.&X;XT.J.(.z g 0 U D y U J (.rX=X4X9X-X+Xc v s o 1 1 5 r O @ 5 5 # o + - ; R fXc.c.c.c.c.z.*.",
"*.*.*.*.:.&.O.).o._.,X*XH.] l k d.G.(.J.Y.R.A.x d f 3.S t r.J (.0X4X4X3X9XF._ { 6 o O 5 1 O 3 O O & o . % $ ; , , *.*.*.*.*.*.*.",
"MXMXMXzXzXxXhXo.zXxX{.a.'.`.u.) z 9.G.J.M.T.F.x p f U F S 2.( %X7X7X4X9XeX^.c { 9 o o 3 O O # # @ & % e R , $ T T dXc.c.c.c.c.c.",
"zXzXzXzXzXzXjXzXzXzXzXxX~.p.*X-XV.! u ] G.OXp.g u x U y G 6.[ J.7X3X1X4XrXF.v { @ # O 3 O O # o +   a ; . , < ; kXdXdXdXc.dXc.c.",
"zXzXzXzXzXzXzXc.c.zXc.zXxX|.~.V.7X7XH.! x 0.p.{ v g Z Z G U ` #X2X$X#X1X0Xu.g I X O # o o o 5 : n M n $ M , T cXjXfXfXfXzXzXzXfX",
"zXzXzXzXzXzXMXzXMXMXzXzXzXzXdXgX~./.7X3Xm./ = * . 7 I P A 6.` &X#XT.Y.Y.-X} p N o # o   + 9 e n : $ X < kXfXhXzXzXzXzXzXzXzXzXzX",
"zXzXzXzXzXzXzXzXzXzXzXzXzXzXzX*.jXXXZ.H.7XqX^.{ > * w 0 V | ` %X%XD.U.D.%X/ g m X o X & a s > ; , , ].cXzXzXzXzXzXzXzXzXzXzXzXzX",
"zXzXzXzXzXzXzXzXzXzXzXzXzXzXfX*.jXxXxX.X!.^.).-XC.) = h A g J -XoXS.N.D.J.H x d   ; & > s > > M #.cXzXzXzXzXzXzXzXzXzXzXzXzXzXzX",
"zXzXzXzXzXzXzXzXzXzXzXzXzXzXc.*.dXzXzXzXSX}.p.V.`.#XC./ i x ] oXI.S.N.U.G.H z i + e n u > > X.k.dXzXzXzXzXzXzXzXzXzXzXzXzXzXzXzX",
"*.*.*.*.*.*.*.*.*.*.*.*.*.*.*.*.*.*.*.*.*.;.SX}.O.V.*XqXV.[ g J q.S.J.D.A./ v u l > > b > ;.:.*.*.*.*.*.*.*.*.*.*.*.*.*.*.*.*.*.",
"c.zXzXzXMXzXMXMXAXAXAXMXzXMXMXzXzXzXzXzXzXzXzXAXDX~.u.H.3X7X(.[ ( ] w.F.F.{ g * % > > ..jXMXMXzXfXzXzXzXzXzXzXzXzXzXzXzXzXzXc.*.",
"zXzXzXzXzXzXzXzXzXzXzXzXzXzXzXzXzXzXzXzXzXzXzXzXxXGXDXO.3XL.L.#XA.9.[ ` N % = = b X.k.cXjXzXzXzXzXzXzXzXzXzXzXzXzXzXzXzXzXzXzX*.",
"zXzXzXzXzXzXzXzXzXzXzXzXzXzXzXzXzXzXzXzXzXzXzXzXxXvXSX[.`.L.1XE.6X+XF.| v s N b > > cXzXzXzXzXzXzXzXzXzXzXzXzXzXzXzXzXzXzXzXzX*.",
"zXzXzXzXzXzXzXzXzXzXzXzXzXzXzXzXzXzXzXzXzXzXzXzXzXzXzXmX}.p.V.L.Y.W.:XoX_ > u M > ..xXzXzXzXzXzXzXzXzXzXzXzXzXzXzXzXzXzXzXzXdX*.",
"zXzXzXzXzXzXzXzXzXzXzXzXzXzXzXzXzXzXzXzXzXzXc.c.zXc.zX*.x.mXp. .n.L.3XV.l p b ; k.xXzXzXzXzXzXzXzXzXzXzXzXzXc.c.zXc.zX*.*.*.*.*.",
"zXzXzXzXzXzXzXzXzXzXzXzXzXzXzXzXzXzXzXzXzXzXzXzXMXzXMXMXzXzXxXlX!.V././.l $ >.bXzXzXzXzXzXzXzXzXzXzXzXzXzXzXzXzXMXzXMXMXzXzXzX*.",
"c.zXzXzXzXzXzXzXzXzXzXzXzXzXzXzXzXzXzXzXzXzXzXzXzXzXzXzXzXzXc.*.v.nX[.X.T jXzXzXzXzXzXzXzXzXzXzXzXzXzXzXzXzXzXzXzXzXzXzXzXzXc.*.",
"*.*.*.*.*.*.*.*.*.*.-.-.*.*.*.*.=.*.*.*.*.*.*.*.*.*.*.*.*.*.*.*.*.*.*.x.:.*.*.*.*.*.*.*.*.*.*.*.*.*.*.*.*.*.*.*.*.*.*.*.*.*.*.*.",
"zXzXzXzXzXzXzXzXzXzXzXzXzXzXc.*.c.zXzXzXMXzXMXMXMXAXAXAXMXMXzXzXzXzXzXzXzXzXzXzXzXzXzXzXzXzXc.*.c.zXzXzXMXzXMXMXMXAXAXAXMXMXzXzX",
"zXzXzXzXzXzXzXzXzXzXzXzXzXzXzX*.zXzXzXzXzXzXzXzXzXzXzXzXzXzXzXzXzXzXzXzXzXzXzXzXzXzXzXzXzXzXzX*.zXzXzXzXzXzXzXzXzXzXzXzXzXzXzXzX",
"c.c.c.c.c.c.c.c.c.|.zXzXzXzXzX*.zXzXzXzXzXzXdXc.c.c.c.c.c.c.c.c.zXzXzXzXc.c.c.zXzXc.zXzX*.*.*.*.zXzXzXzXzXzXdXc.c.c.c.c.c.c.c.c.",
"c.c.c.c.c.c.c.c.c.c.dXzXzXzXzX*.zXzXzXzXzXfXc.c.c.c.c.c.c.c.c.c.zXzXzXzXzXMXzXzXzXMXMXzXMXzXdX*.zXzXzXzXzXdXc.c.c.c.c.c.c.c.c.c.",
"c.c.c.c.c.c.c.c.c.c.c.zXzXzXzX*.zXzXzXzXzXc.c.c.c.c.c.c.c.c.c.c.zXzXzXzXzXzXzXzXzXzXzXzXzXzXzX*.zXzXzXzXzXc.c.c.c.c.c.c.c.c.c.c.",
"*.*.*.z.c.c.c.c.c.c.c.zXzXzXzX*.zXzXzXzXzXc.c.c.c.c.c.c.z.*.*.*.zXzXzXzXzXzXzXzXzXzXzXzXzXzXzX*.zXzXzXzXzXc.c.c.c.c.c.c.z.*.*.*.",
"*.*.*.*.z.c.c.c.c.c.c.dXzXzXc.*.c.zXzXzXv.c.c.c.c.c.c.z.*.*.*.*.zXzXzXzXzXzXzXzXzXzXzXzXzXzXc.*.c.zXzXzXdXc.c.c.c.c.c.z.*.*.*.*."
};
