/* XPM */
static char *_230b5857e6f4445e03745369f6e0b6fJHbcefPLc9eRkIzX[] = {
/* columns rows colors chars-per-pixel */
"64 64 70 1 ",
"  c #C01B22",
". c #C11C23",
"X c #CF1A21",
"o c #CE1F26",
"O c #D01B22",
"+ c #D11C23",
"@ c #D01C25",
"# c #D21D24",
"$ c #D01F27",
"% c #D71E24",
"& c #D81B22",
"* c #DA1B22",
"= c #DA1B23",
"- c #D91C23",
"; c #D81D24",
": c #DB1C24",
"> c #DA1D24",
", c #D61E28",
"< c #E31B25",
"1 c #E11F27",
"2 c #E41C26",
"3 c #E51D27",
"4 c #E71E26",
"5 c #EB1922",
"6 c #EA1B23",
"7 c #EC1A23",
"8 c #E81D23",
"9 c #ED1B24",
"0 c #EE1B24",
"q c #EB1C24",
"w c #EA1D24",
"e c #E91E24",
"r c #EB1E25",
"t c #E91D26",
"y c #EB1D27",
"u c #E81F27",
"i c #EA1E27",
"p c #EE1C25",
"a c #E71F29",
"s c #EB1F28",
"d c #D52029",
"f c #DF2028",
"g c #DB2A32",
"h c #E52027",
"j c #E72027",
"k c #E4222B",
"l c #E8202A",
"z c #EC2931",
"x c #ED2A32",
"c c #EA2D34",
"v c #F63E46",
"b c #F73F47",
"n c #F83F45",
"m c #F93E47",
"M c #F83F47",
"N c #EF4047",
"B c #E04048",
"V c #EE4049",
"C c #F54047",
"Z c #F44147",
"A c #F2424C",
"S c #F3424C",
"D c #F74C54",
"F c #F3565F",
"G c #FF555E",
"H c #FF565E",
"J c #F45760",
"K c #FF5860",
"L c #FF7079",
"P c #FF717A",
/* pixels */
"LBSMMMMMMMbbMMMMMMMMMMMMMMMMMMMMMMMMMMMMMMMMMMMMMMMMMMMMMMMMMZND",
"F ,=======--====================>============================>+g",
"Koki33ii33ii33iiiiiiiiiiiiiiiiiiiiii33ii33ii33ii33ii33ii33ii3h1c",
"HX396i99ii99ii9979997999999999999999ii99ii99ii99ii998879ii99ii3z",
"HOl999999999999999799799999999999999999999999999999999999999ii3z",
"H+l999999999999999p99p999999999999999979999999999999999977998i<z",
"H+a9999p99997999997997999999999999999979999999999999999977999i<z",
"H+a9999999999999999999999999999999999999999999999999999979999i3z",
"H+a9799999999999999999999999999999999999999999999999999999999i3z",
"H+a9997999999999999999999999999999999999999999999999999999999i3z",
"H+a9999999999999999999999999999999999999999999999999999999998i3z",
"H+a979999999999999999999999999999999999999999999999999999999ii3z",
"H+a999799999999999999999999999999999999999999999ii9777999999ii3z",
"H+a999999999999999999999999999999999999999999999ii9999999999ii3z",
"H+a9799999999999999999999999999999999999999999999999999999999i3z",
"H+a9997999999999999999999999999999999999999999999999999999999i3z",
"H+a9999999999999999999999999999999999999999999999999999977799i3z",
"H+a999999999999999999999999999999999999999999999999999997779983z",
"H+a997799999999999999999999999999999999999999999999999997799ii3z",
"H+a999999999999999999999999999999999999999999999999999999999ii3z",
"H+a9999999999999999999999999999999999999999999999999999999999i3z",
"H+a999p999999999999999999999999999999999999999999999999999999i3z",
"H+a9999999999999999999999999999999999999999999999999999999997i3z",
"H+a9979999999999999999999999999999999999999999999999999999999i3z",
"H+a9999999999999997997999999999999999999999999999999999999999i3z",
"H+a9999999999999999779999999999999999999999999999999999999999i3z",
"H+a9999999999999999779999999999999999999999999999999999999999i3z",
"H+a9999999999999999999999999999999999999999999999999999999999i3z",
"H+a999999999999999999999999999999999999999999999999999999799883z",
"H+a999999999999999999999999999999999999999999999999999999999i83z",
"H+a9999999999999999999999999999999999999999999999999999999999i3z",
"H+a9999999999999999999999999999999999999999999999999999999999i3z",
"H+a999999999999999999999999999999999999999999999999999999999ii3z",
"H+a999999999999999999999999999999999999999999999999999999999ii3z",
"H+a9999999999999999999999999999999999999999999999999999999998i3z",
"H+a999999999999999999999999999999999999999999999999999999999883z",
"H+a999999999999999999999999999999999999999999999999999999999ii3z",
"H+a999999999999999999999999999999999999999999999999999999999ii3z",
"H+a999999999999999999999999999999999999999999999999999999999ii3z",
"H+a999999999999999999999999999999999999999999999999999999999ii3z",
"H+a999999999999999999999999999999999999999999999999999997999883z",
"H+a999p99999999999999999999999999999999999999999999999997999i83z",
"H+a999799999999999999999999999999999999999999999999999997799ii3z",
"H+a999p99999999999999999999999999999999999999999999999999999ii3z",
"H+a997799999999999999999999999999999999999999999999999999999ii3z",
"H+a97p999999999999999999999999999999999999999999999999999999ii3z",
"H+a9979999999999999999999999999999999999999999999999999999998i<z",
"H+a99999999999999999999999999999999999999999999999999999999988<z",
"H+a999999999999999999999999999999999999999999999999999999999ii3z",
"H+a999999999999999999999999999999999999999999999999999999999ii3z",
"H+a999999999999999999999999999999999999999999999999999999999ii3z",
"H+a999999999999999999999999999999999999999999999999999999999ii3z",
"H+a99999ii99999999999999999999999999999999999999999999997779883z",
"H+a999999i99999999999999999999999999999999999999999999999979i83z",
"H+a999999999999999999999999999999999999999999999999999999999ii3z",
"H+a999999999999799999999999999999999999999999999999999999999ii3z",
"H+a999999999999799999999999999999999999999999999999999999999ii3z",
"H+a799969999999999999999999999999999999999999999999999999999ii<z",
"H+a79999999999ii99999999999999999999999999999999999999999999ii3z",
"H+a99999999999ii99999999999999999999999999999999999999999999ii<z",
"H+ap99799999999999999999999999999999999999999999999999999999i8<z",
"K$ksiiiiiiiiiiiiiiiiiiiiiiiiiiiiiiiiiiiiiiiiiiiiiiiiiiiiiiiiihfc",
"J.d---->=========-==--===-===-==--==--===-===-==--==--==-===-%$g",
"LBSbbbbbMMMMbbMMMbMMbbMMbbMMbbMMbbMMbbMMbbMMbbMMbbMMbbMMbbMbbZVD"
};
