/* XPM */
static char *P_removebg_preview__1_1736032154[] = {
/* columns rows colors chars-per-pixel */
"64 64 212 2 ",
"   c #3B1A0B",
".  c #491906",
"X  c #471608",
"o  c #4C1A09",
"O  c #471809",
"+  c #4F1F13",
"@  c #521E09",
"#  c #4B220E",
"$  c #44240D",
"%  c #55220D",
"&  c #59250F",
"*  c #4B2412",
"=  c #4C251C",
"-  c #4D2A1B",
";  c #492713",
":  c #542514",
">  c #582513",
",  c #542916",
"<  c #5B2A16",
"1  c #542619",
"2  c #552A1B",
"3  c #5C2C1C",
"4  c #55311C",
"5  c #5D321C",
"6  c #612A16",
"7  c #6A2E16",
"8  c #632D1B",
"9  c #682F1C",
"0  c #63321E",
"q  c #6B321D",
"w  c #4F2721",
"e  c #4F2923",
"r  c #402923",
"t  c #532C23",
"y  c #5B2D22",
"u  c #532E28",
"i  c #562B25",
"p  c #4C322B",
"a  c #563321",
"s  c #5C3323",
"d  c #5C3B23",
"f  c #53332A",
"g  c #5C352A",
"h  c #5E392C",
"j  c #573933",
"k  c #5B3C34",
"l  c #5B3E39",
"z  c #602F21",
"x  c #643424",
"c  c #6B3623",
"v  c #653926",
"b  c #6B3926",
"n  c #64362A",
"m  c #693729",
"M  c #643A2B",
"N  c #6B3C2B",
"B  c #723A25",
"V  c #733D2B",
"C  c #7A3E2B",
"Z  c #733724",
"A  c #633C32",
"S  c #6B3D31",
"D  c #703F32",
"F  c #5F4137",
"G  c #6E402E",
"H  c #65442B",
"J  c #74422E",
"K  c #7C422C",
"L  c #664135",
"P  c #6C4234",
"I  c #654239",
"U  c #6B453A",
"Y  c #6E493E",
"T  c #6D4C33",
"R  c #734333",
"E  c #7A4432",
"W  c #754B35",
"Q  c #7B4935",
"!  c #734639",
"~  c #7A4739",
"^  c #74493C",
"/  c #7B4B3B",
"(  c #755239",
")  c #79533E",
"_  c #785037",
"`  c #5B4341",
"'  c #674943",
"]  c #6C4A42",
"[  c #6A4F4B",
"{  c #734D43",
"}  c #7C4E43",
"|  c #724E48",
" . c #6D524C",
".. c #745147",
"X. c #7C5243",
"o. c #74534B",
"O. c #7B544B",
"+. c #7C594E",
"@. c #6B4E50",
"#. c #6C5458",
"$. c #735652",
"%. c #7C5552",
"&. c #7B5953",
"*. c #745C5B",
"=. c #7B5E5A",
"-. c #775851",
";. c #7E615C",
":. c #6E5967",
">. c #6F5A68",
",. c #715D6B",
"<. c #735F66",
"1. c #78626A",
"2. c #776370",
"3. c #7A6672",
"4. c #7D6975",
"5. c #80422D",
"6. c #834733",
"7. c #834A36",
"8. c #834D3A",
"9. c #814739",
"0. c #83513D",
"q. c #89523E",
"w. c #835444",
"e. c #895644",
"r. c #8D5C46",
"t. c #845549",
"y. c #835A4B",
"u. c #8B5C4B",
"i. c #825945",
"p. c #925E49",
"a. c #835C54",
"s. c #8C5F53",
"d. c #845B5A",
"f. c #8A604B",
"g. c #85624F",
"h. c #96634E",
"j. c #856056",
"k. c #8B6255",
"l. c #83635B",
"z. c #8A655C",
"x. c #8E685D",
"c. c #966D57",
"v. c #9B6A55",
"b. c #97695A",
"n. c #98745E",
"m. c #A36E59",
"M. c #A4705B",
"N. c #836661",
"B. c #8D6461",
"V. c #8B6A63",
"C. c #936E69",
"Z. c #946864",
"A. c #82706E",
"S. c #957561",
"D. c #95716B",
"F. c #9B746E",
"G. c #9C7A67",
"H. c #816E79",
"J. c #926475",
"K. c #84717C",
"L. c #8D767E",
"P. c #9C7671",
"I. c #957777",
"U. c #B17C67",
"Y. c #A87E77",
"T. c #AD707B",
"R. c #A37B76",
"E. c #A27D6A",
"W. c #A5826F",
"Q. c #A98578",
"!. c #B2927D",
"~. c #B18D77",
"^. c #8F7880",
"/. c #937C83",
"(. c #B77F83",
"). c #988288",
"_. c #B68A88",
"`. c #BC9A84",
"'. c #BE968B",
"]. c #B79B98",
"[. c #AB8C8C",
"{. c #BFA09D",
"}. c #BBA3A3",
"|. c #C39490",
" X c #C69A96",
".X c #C69C99",
"XX c #C89E9B",
"oX c #C3A19C",
"OX c #C9A09C",
"+X c #C9A692",
"@X c #D7A08C",
"#X c #CBAAA8",
"$X c #D1B1A5",
"%X c #D5B1AE",
"&X c #CDB5B1",
"*X c #D5B8B6",
"=X c #DCCABE",
"-X c #DEC2BE",
";X c #D7C8C8",
":X c #E2CAC8",
">X c #E5D1CF",
",X c #E8D1CB",
"<X c #E3D5D3",
"1X c #E9D4D0",
"2X c #ECDCD8",
"3X c #F1DFDD",
"4X c #F3E0DD",
"5X c #EFE3E1",
"6X c #F5E6E4",
"7X c #F7E9E7",
"8X c #FAECEB",
"9X c #FEF2F1",
/* pixels */
":.:.:.:.:.:.:.:.:.:.:.:.:.:.:.K.Q.^.^./.).)././.L./.L.L.^.^.^.^.^./.).[.].].].oX].#X#X#X*X&X}.:X;X>.>.>.:.:.:.:.:.:.:.:.:.:.:.:.",
":.:.:.:.:.:.J.T.T.T.T.(.|.|.|.OX1.[ A. .o. .-.-.a.+.o.o.o.o.[ [  . .[ [ ' ] ] | o.| ..' $.#.F 4.5X'.|.'.(.T.T.T.T.J.:.:.:.:.:.:.",
":.:.:.:.:.:.T.T.T.T.T.|.|.|.|.|. .p  .k I k F F I I F k k k l j j j j j j g g h A k k p F l p *.8X|.|.|.|.T.T.T.T.T.:.:.:.:.:.:.",
":.:.:.:.:.J.T.T.T.T.T.|.|.|.|.|.l.F l...+.o.o...........| | ] ] [ ] ] ] Y Y ! U ! U ! I [ I j 1.7X|.|.|.|.T.T.T.T.T.J.:.:.:.:.:.",
"J.T.T.T.T.T.T.T.T.T.T.|.|.|.|.|.-.f +.U ^ L P L U Y ^ Y Y U I I ] I U L P L R P m M D A | U f *.2X'.|.|.|.T.T.T.T.T.T.T.T.T.J.:.",
"T.T.T.T.T.T.T.T.T.T.T.|.|.|.|.|.z.h y.P P h M n P W ^ ^ ^ ^ ^ ^ { S A M S N N N y x S S ..| A l.<X|.|.|.|.T.T.T.T.T.T.T.T.T.T.:.",
"T.T.T.T.T.T.T.T.T.T.T.|.|.|.|.|.Z.H u.L M s v b v N G P P R ^ / ! A y y x x c z : < x x ^ ^ h l.1X|.|.|.|.T.T.T.T.T.T.T.T.T.T.:.",
"J.T.T.T.T.T.T.T.T.T.T._.|.|.|.|.Z.v w.N x 5 v N 3 0 x N N N R ^ w.R n x c c Z c 9 8 N x ^ R g z.1X|.|.|._.T.T.T.T.T.T.T.T.T.J.:.",
":.:.:.:.:.:.:.:.:.:.:.:.:.:.:.:.$.c w.N G x 0 < < J 0 x V c N x N R N x b q 6 q 8 6 c b D w.2 z.;X:.:.:.:.:.:.:.:.:.:.:.:.:.:.:.",
"T.T.T.T.T.T.T.T.T.T.(.|.|.|.T.:.x.c w.c N x 0 < V e.E E / R Q W R ~ N x J B q B 8 q c b R w.2 z.,X|.|.|.|.(.T.T.T.T.T.T.T.T.T.T.",
"T.T.T.T.T.T.T.T.T.(.|.|.|.|.|.:.F.x w.N b 0 c 0 < 0./ 0.u.8.e.e./ / N b J K K 6.9 9 Z N R t.2 l.3X|.|.|.|.|.(.T.T.T.T.T.T.T.T.T.",
"|.|.|.|.|.|.|.|.|.|.|.|.|.|.|.>.F.x / v N 0 b c o E Q 0.w.~ / / / w.! N J K K 8.q 9 c N R u.3 l.2X|.|.|.|.|.|.|.|.|.|.|.|.|.|.|.",
"|.|.|.|.|.|.|.T.T.|.T.|.:.:.:.,.Y.n w.v b x b G < ) E Q ^ N ! ~ Q X.Q N V b B 8.q q c N R u.4 l.,X|.|.|.|.|.|.|.|.|.|.|.|.|.|.|.",
"|.|.|.|.|.|.$X|.$X$X|.|.|.|.(.,.Y.M w.x v v b b 0 Q N b R R e.k.P / ! N V b b 7.c 0 c N R s.2 j.:X|.|.|.|.|.|.|.|.|.|.|.|.|.|.|.",
"|.|.|.|.|.|.|.|.|.|.|.|.|.|.|.2.Y.N X.s v v v G , J x N / / u.s.L W R P / E J Q c 0 c N ! s.t ;.-X|.|.|.|.|.|.|.|.|.|.|.|.|.|.|.",
"|.|.|.|.|.|.|.|.|.|.|.|.|.|.T.3.Z.v X.x v x N N : ! P / u./ / N N P N G e.e.E E B c x N ! s.2 =.#X|.|.|.|.|.|.|.|.|.|.|.|.|.|.|.",
":.:.:.:.:.:.:.:.,.:.:.:.:.:.>.2.#.g X.c V c B 0 x ^ A a.R N V ~ G v 0 < h.h.7 q.c N c N P k.= ;./.>.>.>.>.>.>.:.:.:.:.:.:.:.:.:.",
"T.|.|.|.$X|.$X$X=X=X=X$X|.$X$X XF.M X.x B c B c 1 U L k.S y c / Q N v 0 p.v.q 8.q V m S ! +.= D.OX|.|.|.|.|.|.|.|.|.|.|.|.|.T.:.",
"|.|.|.|.|.|.|.|.|.|.|.|.|.|.|.|.P.M X.c B Z B b * N L x.L x 8.U.e.G 0 < p.m.q 8.Z V N N P y.= P.|.|.|.|.|.|.|.|.|.|.|.|.|.|.|.:.",
"|.|.|.|.|.|.|.|.|.|.|.|.|.|.|.|.P.k X.x B B C N 1 A A j.P N h.@Xw.G 0 & p.m.q 7.b V N N T a.= Q.|.|.|.|.|.|.|.|.|.|.|.|.|.|.|.:.",
"|.|.|.|.|.|.|.|.|.|.|.|.|.|.|.|.F.M X.x B B K N x S k k.S y 7.U./ b 5 > p.m.B 8.B V b M Y y.- _.|.|.|.|.|.|.|.|.|.|.|.|.|.|.T.<.",
"|.|.|.|.|.|.|.|.|.|.|.|.|.|.|. XD.g X.x C B C b 2 A A x.{ n V q.J v 3 > f.v.7 7.V N N s R y.t _.XX|.|.|.|.|.T.T.|.T.|.>.:.:.>.<.",
"|.|.|.|.|.|.|.|.|.|.|.|.|.|.|. XC.g / c V B V b : A A x.} R E 7.J c 0 5 f.h.6 Q b N v s P O.f _.#X|.|.|.|.|.|.|.$X|.$X$X|.|.|.>.",
"T.|.|.|.|.|.|.|.|.|.|.|.|.|.|. XC.g ) 0 V B B q y P h a.P N E 9.W N N 0 f.h.< W v N v s L X.u R.*X|.|.|.|.|.|.|.|.|.|.|.|.|.T.>.",
":.:.:.:.:.:.:.:.:.:.:.:.:.:.:.3.#.t X.0 9 Z q x < L L k.P S E C ~ c x < r.v.5 W W v G v L T A #.-X:.:.:.:.:.:.:.:.:.:.:.:.:.:.:.",
"|.|.|.|.|.|.|.|.|.|.|.|.|.|.T.3.B.t X.x q B q c 1 A L z.P D ~ E ! x x < u.c.5 W # 5 v - A { A d.6X|.|.|.$X|.$X$X$X-X=X=X$X$X|.|.",
"|.|.|.|.|.|.|.|.|.|.|.|.|.|.|.3.D.t t.x q Z q c : A A z.P S ~ E V x x < r.c.5 _ # +.X.; P { g l.8X|.|.|.|.|.|.|.|.|.|.|.|.|.|.|.",
"T.T.T.T.T.T.T.T.T.(.|.|.|.|.|.3.D.t i.3 q B 0 c * h M k.S N E C N x c 3 f.v.5 _ 5 ~.G.- ^ { w N.9X|.|.|.|.|.|.|.|.|.|.|.|.|.|.|.",
"T.T.T.T.T.T.T.T.T.T.(.|.|.|.|.3.C.2 i.x q B c c : g A a.A N E E m 5 x 3 r.c.5 ( 4 `.Q.2 { | 1 N.9X|.|.|.|.|.|.|.|.|.|.|.|.|.|.|.",
"T.T.T.T.T.T.T.T.T.T.T.|.|.|.|.2.C.- t.x q B q c 1 M A j.S N E E c 0 x 5 f.c.4 ( d `.W.4 ! { w N.3X|.|.|.|.|.|.|.|.|.|.|.|.|.|.|.",
":.:.:.J.T.T.T.T.T.T.T.|.|.|.|.H.C.e i.x Z V q c 1 M A j.S S R C m z q 5 f.c.4 T H ~.S.- U { w =.>X|.|.|.|.|.|.|.|.|.|.|.|.|.|.|.",
":.:.:.:.J.T.T.T.T.T.T.(.|.|.T.3.d.t t.x c B 9 0 : A A j.S N D V m z 0 5 f.c.4 T 4 S.k.* U { e -.>X|.|.|.|.|.|.|.|.|.|.|.|.|.|.|.",
":.:.:.:.:.:.:.:.:.:.:.:.:.:.>.4.@.i O.z m n 1 z 1 D m d.D S m ~ V m v , w.k.5 ( $ 4 - $ I ] f &.<X:.:.:.:.:.:.:.:.:.:.:.:.:.:.:.",
"T.|.|.|.|.$X$X$X$X$X|.|.$X|.|..XB.i t.i D S z n y D S t.] n S n D x 3 2 f.n.H T d S.S.F L L u V.2X|.|.|.(.T.T.T.T.J.:.:.:.:.:.:.",
"|.|.|.|.|.|.|.|.|.|.|.|.|.|.|. Xd.i } i S m z n + D D } t.D t.S z z y 1 ) +.H H d !.G.- L ^ u *.5X|.|.|.|.T.T.T.T.T.:.:.:.:.:.:.",
"|.|.|.|.|.|.|.|.|.|.|.|.|.|.|.XX%.i } i S n i m + D t.~ s.t.b.} 1 m D M H 5 4 T - `.G.  F +.t $.6X|.|.|.|.T.T.T.T.T.J.:.:.:.:.:.",
"|.|.|.|.|.|.|.|.|.|.|.|.|.|.|. X| y } y S n i z + D s.~ t.! s.R z ~ W P v 4 H _ # +X`.a k U e N.7X|.|.|.|.T.T.T.T.T.T.T.T.T.J.:.",
"|.|.|.|.|.|.|.|.|.|.|.|.|.|.|. X| y } i n n 1 z X D w.D ^ S t.! N P 3 x H v W T - W.n.- A ] w =.7X|.|.|.|.T.T.T.T.T.T.T.T.T.T.:.",
"|.|.|.|.|.|.|.|.|.|.|.|.|.|.|. X] y } 3 m x : y X m z ~ R R } } N N * x v x W 0 , v 2   { ..e $.5X|.|.|.|.T.T.T.T.T.T.T.T.T.T.:.",
"T.|.|.|.|.|.|.|.|.|.|.|.|.|.|. X] y } y m x + z z D x t.S ~ ~ ~ x R x R v < W H 1 s s g } U u N.2X|.|.|.(.T.T.T.T.T.T.T.T.T.J.:.",
":.:.:.:.:.:.:.:.:.:.:.:.:.:.>.H.{ 3 t.s x n z m / D e.S e.~ } R ^ n R S N R 0 v x 2 L g U { u =.<X:.:.:.:.:.:.:.:.:.:.:.:.:.:.:.",
"$X$X$X|.|.|.|.|.|.|.|.|.|.|.T.H.] 1 t.x x n 8 x x < S < N 3 x 3 N 1 x x x x < 5 5 < P x U { u =.>X|.|.|.|.(.T.T.T.T.T.T.T.T.T.T.",
"|.|.|.|.|.|.|.|.|.|.|.|.|.|.|.H.] 1 t.x x x 2 z N b W V ^ N ! N c 1 x 2 x c 1 x s < N g U { i <.;X|.|.|.|.|.(.T.T.T.T.T.T.T.T.T.",
"|.|.|.|.|.|.|.T.T.|.T.|.|.:.:.K.] 3 t.x n x < 3 X : > 3 x 1 x < n 2 x 3 c N 6 V 8 1 N s U { i =.%X|.|.|.|.|.|.|.|.|.|.|.|.|.|.|.",
"|.|.|.|.|.|.$X|.$X$X|.|.|.|.(.K.U : i.x x x > < > G 0 / / ! 0.^ x y 3 < N N > V 3 1 m y D ] u =. X|.|.|.|.|.|.|.|.|.|.|.|.|.|.|.",
"|.|.|.|.|.|.|.|.|.|.|.|.|.|.|.H.U 1 w.x x x 1 < . c > W V b W N M x x 2 ~ 7.6 C 6 > m i S ] e =.|.|.|.|.|.|.|.|.|.|.|.|.|.|.|.|.",
"|.|.|.|.|.|.|.|.|.|.|.|.|.|.|.K.] : 0.3 3 0 > < o W & ) N x R x M x 5 3 e.e.z E 3 > m 3 S ] u =. X|.|.|.|.|.|.|.|.|.|.|.|.|.|.|.",
"|.|.|.|.|.|.|.|.|.|.|.|.|.|.T.K.] 1 w.3 3 3 > < o E > q.b 0 J 5 3 2 : : w.e.6 V < : m i S ] e =.(.|.|.|.|.|.|.|.|.|.|.|.|.|.|.|.",
":.:.:.:.:.:.:.:.:.:.:.:.:.:.:.K.L 3 ~ > > > 8 & @ V 0 Q c 0 8 b , 5 # o 0.w.> R < 1 3 y z w.1 =.2.>.>.>.>.>.>.:.:.:.:.:.:.:.:.:.",
"T.|.|.|.$X|.$X$X=X=X=X$X|.$X$XOX^ 8 Q < < 6 0 6 @ K 0 K x 9 5 b 4 4 * # w.i.< R 8 > y z x } : C. X|.|.|.|.|.|.|.|.|.|.|.|.|.T.:.",
"|.|.|.|.|.|.|.|.|.|.|.|.|.|.|. X| y / 3 3 8 x < o J 0 J c x z S s 4 # * ) i.w N 3 1 z z n w.1 D. X|.|.|.|.|.|.|.|.|.|.|.|.|.|.:.",
"|.|.|.|.|.|.|.|.|.|.|.|.|.|.|.OX| s { 2 y 2 s 1 . W 3 J V S c D s 2 * * } i.y S y w i i A } e P. X|.|.|.|.|.|.|.|.|.|.|.|.|.|.:.",
"|.|.|.|.|.|.|.|.|.|.|.|.|.|.|.OX-.g ..u i t x 1 X R y D m D D D N y y s t.t.n D z y g n A %.i P.|.|.|.|.|.|.|.|.|.|.|.|.|.|.(.:.",
"|.|.|.|.|.|.|.|.|.|.|.|.|.|.|.OX=.h O.g g s n 2 X R 8 D D 9.D D N y z x D w.n ! n i g g A O.e P.|.|.|.|.|.|.T.T.|.T.|.:.:.:.:.:.",
"|.|.|.|.|.|.|.|.|.|.|.|.|.|.|.OXj.g O.g M x N 3 X V 6 C Z 9.C C m 8 x 8 c V c D z y n n A O.i R.|.|.|.|.|.|.|.|.$X|.$X$X|.|.|.:.",
"T.|.|.|.|.|.|.|.|.|.|.|.|.|.|. X;.g X.g x s v < . V 6 Z Z 9.9.C V 7 c 9 z Z c ~ c y n n N X.i P. X|.|.|.|.|.|.|.|.|.|.|.|.|.T.:.",
":.:.:.:.:.:.:.:.>.:.:.:.:.:.>.3. .a ) s x 0 c 6 7 q Z K 6.6.6.5.5.C Z q Z q 7 q 6 0 c 8 R ~ N *.2.:.:.:.:.:.:.:.:.:.:.:.:.:.:.:.",
"|.|.|.|.|.|.|.|.|.|.|.|.|.|.T.3.O.2 / s x 0 x 0 K K K K 5.5.K K 7 7 7 7 7 Z q q q c V 0 J R x &.(.|.|.|.$X|.$X$X$X=X=X=X$X$X|.|.",
"|.|.|.|.|.|.|.|.|.|.|.|.|.|.|.3.V.M X.M v < < & G q q 0 q q q q q q q q 7 7 7 8 % < 0 0 R ^ N <.|.|.|.|.|.|.|.|.|.|.|.|.|.|.|.|.",
"T.T.T.T.T.T.T.T.T._.|.|.|.|.|.2.l.a ..M N s v v v c v 0 q q c x 9 5 < 0 0 5 < , 0 x J M R R s *. X|.|.|.|.|.(.T.T.T.T.T.T.T.T.T.",
"T.T.T.T.T.T.T.T.T.T.(.|.|.|.|.H.V.f ..k h = e = L h h M M g g a a 4 a d H H a a * = s g Y ! S <.|.|.|.|.|.(.T.T.T.T.T.T.T.T.T.T.",
"T.T.T.T.T.T.T.T.T.T.T.|.|.|.|.H.*.r [ o.;.%.%.d.a.d.a.a.N.d.d.%.V.x.V.z.z.x.j.&.%.=.z.&.-.l j :.|.|.|.|.|.T.T.T.T.T.T.T.T.T.T.T.",
":.:.:.J.T.T.T.T.T.T.T.|.|.|.|.3.I.=.[._.|.T.T.T.T.T.T.T.J.:.:.:.'.|.|.|.|.|.|.|.|.|.|.|.'.Y.d.,.|.|.|.|.|.T.T.T.T.T.T.T.J.:.:.:.",
":.:.:.:.J.T.T.T.T.T.T.(.|.|.T.:.T.|.|.|._.T.T.T.T.T.T.J.:.:.:.:.|.|.|.|.|.|.|.|.|.|.|.|.|..X_.>.T.|.|.|.(.T.T.T.T.T.T.J.:.:.:.:."
};
