/* XPM */
static char *_97fdb5a2681493189c67b85e026c51772f2BIL1uc1mxZwf[] = {
/* columns rows colors chars-per-pixel */
"64 64 242 2 ",
"   c #181A03",
".  c #190901",
"X  c #281609",
"o  c #2B1710",
"O  c #1E2500",
"+  c #292409",
"@  c #392B00",
"#  c #332A05",
"$  c #2D3604",
"%  c #363807",
"&  c #2A2815",
"*  c #372514",
"=  c #313518",
"-  c #3A3123",
";  c #442A06",
":  c #4A3A0A",
">  c #57380C",
",  c #473718",
"<  c #553D1B",
"1  c #4A290F",
"2  c #4A3627",
"3  c #583B27",
"4  c #573E34",
"5  c #502E24",
"6  c #6C3E2D",
"7  c #653F1B",
"8  c #3C441F",
"9  c #534A09",
"0  c #48451A",
"q  c #58491C",
"w  c #4A510B",
"e  c #6B591D",
"r  c #6E4C14",
"t  c #5F7A0A",
"y  c #726D1A",
"u  c #4C4629",
"i  c #5A4629",
"p  c #4D5527",
"a  c #585629",
"s  c #5B4734",
"d  c #4D5A39",
"f  c #5B533C",
"g  c #4F4933",
"h  c #654B2C",
"j  c #694728",
"k  c #74492C",
"l  c #695729",
"z  c #674836",
"x  c #764B33",
"c  c #7A4D34",
"v  c #754B3A",
"b  c #7B4D3B",
"n  c #774636",
"m  c #6D5333",
"M  c #67533A",
"N  c #735234",
"B  c #7B5335",
"V  c #75523C",
"C  c #7B543C",
"Z  c #785A3B",
"A  c #79542B",
"S  c #54642A",
"D  c #466837",
"F  c #546A3B",
"G  c #477639",
"H  c #5D7234",
"J  c #567B2E",
"K  c #6B6728",
"L  c #76732C",
"P  c #656C37",
"I  c #677334",
"U  c #777835",
"Y  c #726A30",
"T  c #5A5844",
"R  c #7C4C44",
"E  c #6A5948",
"W  c #7D5342",
"Q  c #795745",
"!  c #6B5C5D",
"~  c #576445",
"^  c #597847",
"/  c #527346",
"(  c #677749",
")  c #677552",
"_  c #6F6D4E",
"`  c #6E5967",
"'  c #6F5A68",
"]  c #705B69",
"[  c #796569",
"{  c #7C6973",
"}  c #824E3A",
"|  c #83573C",
" . c #A67E39",
".. c #825A44",
"X. c #835849",
"o. c #825759",
"O. c #926475",
"+. c #877575",
"@. c #997B77",
"#. c #8A726B",
"$. c #AD707B",
"%. c #738C19",
"&. c #758E14",
"*. c #588A3B",
"=. c #69883D",
"-. c #76873A",
";. c #7A9738",
":. c #79932D",
">. c #7CAD36",
",. c #598649",
"<. c #5C9648",
"1. c #588F4F",
"2. c #678548",
"3. c #778747",
"4. c #65984C",
"5. c #769847",
"6. c #688957",
"7. c #659B52",
"8. c #6A9756",
"9. c #759958",
"0. c #76875A",
"q. c #6BA457",
"w. c #71A658",
"e. c #6D9461",
"r. c #779965",
"t. c #758C64",
"y. c #72A661",
"u. c #85961D",
"i. c #959C1A",
"p. c #8C9036",
"a. c #86A838",
"s. c #96A936",
"d. c #8AB13C",
"f. c #99B83B",
"g. c #96A82F",
"h. c #A2AC3A",
"j. c #A6B63A",
"k. c #A7AC2D",
"l. c #9AC238",
"z. c #A5C33B",
"x. c #8B9849",
"c. c #889651",
"v. c #929B58",
"b. c #8A9247",
"n. c #B08450",
"m. c #8BAA46",
"M. c #97A747",
"N. c #8AB443",
"B. c #9CBC44",
"V. c #9CBD4B",
"C. c #98B548",
"Z. c #89A758",
"A. c #98AA56",
"S. c #99B657",
"D. c #A6AA4A",
"F. c #A3BC45",
"G. c #A4BE4B",
"H. c #ACBC4D",
"J. c #A6B644",
"K. c #A6AB57",
"L. c #A4BB52",
"P. c #A8B858",
"I. c #B6B955",
"U. c #B4B24C",
"Y. c #88936A",
"T. c #8B9C7C",
"R. c #8F8877",
"E. c #A69374",
"W. c #99A963",
"Q. c #9FB663",
"!. c #8BA76F",
"~. c #A8B865",
"^. c #ADAD76",
"/. c #AAB06F",
"(. c #C1B05B",
"). c #9DC344",
"_. c #9BC14A",
"`. c #96C54B",
"'. c #A5C344",
"]. c #AAC243",
"[. c #A4C34B",
"{. c #AAC44B",
"}. c #A9CB4A",
"|. c #B4C14A",
" X c #A5C454",
".X c #AACB53",
"XX c #ABC558",
"oX c #B2C453",
"OX c #B7C957",
"+X c #B0D351",
"@X c #ABC567",
"#X c #B6C867",
"$X c #AAC276",
"%X c #B6CB70",
"&X c #C3C95A",
"*X c #C3C766",
"=X c #D0D876",
"-X c #C8E47A",
";X c #8C7C81",
":X c #B77F83",
">X c #B07781",
",X c #8F8284",
"<X c #978883",
"1X c #8E9982",
"2X c #AA8B88",
"3X c #B88489",
"4X c #BC9B96",
"5X c #B8928F",
"6X c #93AB86",
"7X c #92B082",
"8X c #BBB987",
"9X c #ABA694",
"0X c #BCA69C",
"qX c #A5B894",
"wX c #AEB38E",
"eX c #C39490",
"rX c #C69A95",
"tX c #C59D99",
"yX c #C99D97",
"uX c #CAA39B",
"iX c #C7A79A",
"pX c #C9B899",
"aX c #D3BB9E",
"sX c #CAACA2",
"dX c #C8B6A4",
"fX c #D1B1A5",
"gX c #D3BBA7",
"hX c #B8C483",
"jX c #B3C6A0",
"kX c #C8CB99",
"lX c #CCCE93",
"zX c #D9E98F",
"xX c #C9C5A2",
"cX c #D5C8A8",
"vX c #CDD8A6",
"bX c #DCCABE",
"nX c #D8C5B5",
"mX c #D4D8B1",
"MX c #D5E3A8",
"NX c #E3ECB8",
"BX c #E2F98F",
"VX c #E1E8C3",
/* pixels */
"` ` ` ` ` ` ` ` ` ` ` ` ` ` ` ` ` ` ` ` ` ` ` ` ` ` ` ` ` ` ` ` ` ` ` ` ` ` ` ` ` ` ` ` ` ` ` ` ` ` ` ` ` ` ` ` ` ` ` ` ` ` ` ` ",
"` ` ` ` ` ` O.$.$.$.$.:XeXeXeXeXeXeXeXeXeXeXeXeXeXeXeXeXeXeX$.` ` ` ` ` ` ` O.$.$.$.$.:XeXeXeXeXeXeXeXeX:X$.$.$.$.O.` ` ` ` ` ` ",
"` ` ` ` ` ` $.$.$.$.$.eXeXeXeXeXeXeXeXeXeXeXeXeXeXeXeXeXeXeXeX` ` ` ` ` ` ` $.$.$.$.$.eXeXeXeXeXeXeXeXeXeX$.$.$.$.$.` ` ` ` ` ` ",
"` ` ` ` ` O.$.$.$.$.$.eXeXeXeXeXeXeXeXeX$.eX$.$.$.$.$.eXeX` ` ` ` ` ` ` ` O.$.$.$.$.$.eXeXeXeXeXeXeXeXeXeX$.$.$.$.$.O.` ` ` ` ` ",
"O.$.$.$.$.$.$.$.$.$.$.eXeXeXeXeXeXeXeXeXeXfXeXfXfXfXeXeXeXeX:X` O.$.$.$.$.$.$.$.$.$.$.eXeXeXeXeXeXeXeXeXeX$.$.$.$.$.$.$.$.$.O.` ",
"$.$.$.$.$.$.$.$.$.$.$.eXeXeXeXeXeXeXeXeXeXeXeXeXeXeXeXeXeXeXeX` $.$.$.$.$.$.$.$.$.$.$.eXeXeXeXeXeXeXeXeXeX$.$.$.$.$.$.$.$.$.$.` ",
"$.$.$.$.$.$.$.$.$.$.$.eXeXeXeXeXeXeXeXeXeXeXeXeXeXeXeXeXeXeXeX` $.$.$.$.$.$.$.$.$.$.$.eXeXeXeXeXeXeXeXeXeX$.$.$.$.$.$.$.$.$.$.` ",
"O.$.$.$.$.$.$.$.$.$.$.:XeXeXeXeXeXeXeXeXeXeXeXeXeXeXeXeXeXeX$.[ O.$.$.$.$.$.$.$.$.$.$.:XeXeXeXeXeXeXeXeX:X$.$.$.$.$.$.$.$.$.O.` ",
"` ` ` ` ` ` ` ` ` ` ` ` ` ` ` ` ` ` ` ` ` ` ` ` ` ` ` ` ` ` ` #.;X` ` ` ` ` ` ` ` ` ` ` ` ` ` ` ` ` ` ` ` ` ` ` ` ` ` ` ` ` ` ` ",
"$.$.$.$.$.$.$.$.$.$.:XeXeXeX$.` $.eXeXeXfXeXfXfXfXfXfXeXeXeXrXo.o.5X$.$.$.$.$.$.$.$.:XeXeXeX$.` $.eXeXeXeX:X$.$.$.$.$.$.$.$.$.$.",
"$.$.$.$.$.$.$.$.$.:XeXeXeXeXeX` eXeXeXeXeXeXeXeXeXeXeXeXeXeXyX5 3 4 $.$.$.$.$.$.$.:XeXeXeXeXeX` eXeXeXeXeXeX:X$.$.$.$.$.$.$.$.$.",
"eXeXeXeXeXeXeXeXeXeXeXeXeXeXeX` eXeXeXeXeXeXeXeXeXeXeXeXfXaX> ; > E.gXeXeXeXeXeXeXeXeXrXeXeXeX` eXeXeXeXeXeXeXeXeXeXeXeXeXeXeXeX",
"eXeXeXeXeXeXeX$.$.eX$.eX` ` ` ` eXeXeXeXuXyXeXeXeXeXeXlXM.I.I.| U.OXD.P.cXrXeX$.$.uXpXcXgX` ` ` eXeXeXeXeXeXeXeXeXeXeXeXeXeXeXeX",
"eXeXeXeXeXeXfXeXfXfXeXeXeXeX:X` eXeXeXiX8X^.8XaXeXuXpXA.P.*X&X&XH.J.OXoXM.iXfXeXnX8XA.hXgXeX:X` eXeXeXeXeXeXeXeXeXeXeXeXeXeXeXeX",
"eXeXeXeXeXeXeXeXeXeXeXeXeXeXeX` eXeXeXyXkXb.:.M.pXcX3.0 w b.P.M.C.#X-.$ S c.NXkXx.;.A.lXuXeXeX` eXeXeXeXeXeXeXeXeXeXeXeXeXeXeXeX",
"eXeXeXeXeXeXeXeXeXeXeXeXeXeX$.` $.eXeXeXgX~.%.t M.~.W.W.( w -.OXoXy p Y.W.A.XXa.t a.%XpXeXeX$.` $.eXeXeXeXeXeXeXeXeXeXeXeXeXeXeX",
"` ` ` ` ` ` ` ` ` ` ` ` ` ` ` ` ` ` ` ` ` ^.a.&.u.H.I.#Xa MXD.H.j.*XI ^.zXh.oX&.%.m.wX[ ` ` ` ` ` ` ` ` ` ` ` ` ` ` ` ` ` ` ` ` ",
"$.eXeXeXfXeXfXfXbXbXbXfXeXfXfXeXeXeXeXeXeXxXS.%.j.j.&X*X  L &Xi.k.I.w   =Xj.|.&.;.$XmXfXeXfXfXeXeXeXeXeXeXeXeXeXeXeXeXeXeXeX$.` ",
"eXeXeXeXeXeXeXeXeXeXeXeXeXeXeXeXeXeXeXeXeXrXpX~.C.OXg.OX=XI.h.j.k.g.*X=XH.j.OXC.W.kXuXeXeXeXeXeXeXeXeXeXeXeXeXeXeXeXeXeXeXeXeX` ",
"eXeXeXeXeXeXeXeXeXeXeXeXeXeXeXeXeXeXeXeXeXeXeXvXC.{.oXs.g.h.h.|.|.s.M.s.H.{.F.P.cXeXeXeXeXeXeXeXeXeXeXeXeXeXeXeXeXeXeXeXeXeXeX` ",
"eXeXeXeXeXeXeXeXeXeXeXeXeXeXeXeXeXeXeXeXeXeXuX^.P.F.#X@XoX|.u.u.u.u.P.P.XXB.}.C.^.yXeXeXeXeXeXeXeXeXeXeXeXeXeXeXeXeXeXeXeXeX:X` ",
"eXeXeXeXeXeXeXeXeXeXeXeXeXeXeXeXeXeXeXeXuX#.M W.OXa.A.zX#XJ.f.s.g.F.L.BXG.f.f.L._ M #.sXrXeXeXeXeXeXeXeXeXeX$.$.eX$.eX` ` ` ` ` ",
"eXeXeXeXeXeXeXeXeXeXeXeXeXeXeXeXeXeXrX2Xi h h K oX}.V.#XL.F.OXs.G.F.XX-X Xf.'.J.Y h M z R.uXeXeXeXeXeXeXeXeXeXeXfXeXfXfXeXeXeX` ",
"$.eXeXeXeXeXeXeXeXeXeXeXeXeXeXeXeXtXE z C | j l M.{.[.B.[.a.s.f.f.s.g.a..X XG.p.l m N Q z E sXeXeXeXeXeXeXeXeXeXeXeXeXeXeXeX$.` ",
"` ` ` ` ` ` ` ` ` ` ` ` ` ` ` ` ,Xs z Q c k C j K D.OXf.[..XB.].z.+X}.l. X#XM.K h v C k V z f ,X` ` ` ` ` ` ` ` ` ` ` ` ` ` ` ` ",
"eXeXeXeXeXeXeXeXeXeXeXeXeXeX$.{ _ f Q v n } X.z q L J.F.B.[.{.].{.j.f.[. XM.L q V b } c C Z f R.$.eXeXeXfXeXfXfXfXbXbXbXfXfXeXeX",
"eXeXeXeXeXeXeXeXeXeXeXeXeXeXtX1XT M Q x | c n W Q : K ~.@XL.H.J.I.H.XX@Xx.K q j C x x C N m T ~ 9XeXeXeXeXeXeXeXeXeXeXeXeXeXeXeX",
"$.$.$.$.$.$.$.$.$.:XeXeXeXeXqX6.t.~ i j C j 6 X.X.3 q a I A.I.D.K.K.x.U q q N ..B k 6 V h i ( 0.6.0XeXeXeXeXeXeXeXeXeXeXeXeXeXeX",
"$.$.$.$.$.$.$.$.$.$.:XeXeXdXr.8.9.2.a i 3 z c x j V V u , a Y Y Y l i 0 3 z C x k B 3 i a p 2.r.6.e.iXeXeXeXeXeXeXeXeXeXeXeXeXeX",
"$.$.$.$.$.$.$.$.$.$.$.eXeX7X6.9.4.9.3._ 4 z W x x W C Q V , 1 < < < i M Q Q b j k | 3 2 P 2.8.8.y.,.6XeXeXeXeXeXeXeXeXeXeXeXeXeX",
"` ` ` O.$.$.$.$.$.$.$.eXdX6.4.7.4.w.6.6.f s v W b ..k j x | ..V V N B B v v b X.c X.z u ( 8.w.7.4.7.6.dXeXeXeXeXeXeXeXeXeXeXeXeX",
"` ` ` ` O.$.$.$.$.$.$.3X6Xe.7.q.<.w.G F p s z W n x c | c k R v v C B k v R b n W z s p F ,.<.7.<.y.6.6XrXeXeXeXeXeXeXeXeXeXeXeX",
"` ` ` ` ` ` ` ` ` ` ` ;X6.9.7.q.4.4.G ^ 0 q j c x n B C V Q X.R b b B N Q W b n Q < 0 a D ,.1.w.7.8.9.r.{ ` ` ` ` ` ` ` ` ` ` ` ",
"$.eXeXeXeXfXfXfXfXfXeXdX6.8.q.7.<.G 6.7Xc.U l l A k j h h m W R } B m l m m N B q K L v.qX^ G ,.7.4.8.2.iX$.$.$.$.O.` ` ` ` ` ` ",
"eXeXeXeXeXeXeXeXeXeXeX6X,.7.q.<.7.G qXMXQ.M.x.A.3.U Y K e e e e l l K K K L U p.p.M.S.m.NXqXD 8.7.w.w.2.qX>X$.$.$.$.` ` ` ` ` ` ",
"eXeXeXeXeXeXeXeXeXeXeXT.2.*.<.q.,.D mXvX5.m.S.A.S.S.A.K.K.U.U.D.K.A.K.P.K.M.M.C.S.C.B.;.cXiX/ / 7.7.*.6.6X>X$.$.$.$.O.` ` ` ` ` ",
"eXeXeXeXeXeXeXeXeXrX0XY.9.5.9.r.,.^ uXvX5.N.N.:.d.N.V.H.|.|.oXoX}.}.{.oXH.B.N.N.a.N.>.S.pXrXT.D r.8.9.r.T.5X>X$.$.$.$.$.$.$.O.` ",
"eXeXeXeXeXeXeXeXeXtXT d ( 3.0.( F 0.eXNXZ.m.N.B.).'.}.'.F.j.f.'.z.l.z.z.{.{.[. XN.N.d.A.gXeXR.~ ( 0.0.( T T 3X$.$.$.$.$.$.$.$.` ",
"eXeXeXeXeXeXeXeXeXeX+.- u 0 f f + ) eXVXS.a.a.B.'.].'.F.'.'.).'.'.z.z.'.{.{.'.).`.>.C.Z.yXeXT & T E u u 2 ! $.$.$.$.$.$.$.$.$.` ",
"$.eXeXeXeXeXeXeXeXeX0X2 M i 3 2 o R.eXnXhX~.m.d.{.{.'.'..X.X[.'.[.{.}.}.{.{.].z.N.N.m.lXiXeX<XX 5 3 i s 2 2X$.$.$.$.$.$.$.$.O.` ",
"` ` ` ` ` ` ` ` ` ] { 2 h h z , X ;X` [ Y.3.Q.N. X[.[.F.f.}.{.}.{.F.).l.).}.].{.a.S.c.wX] ` ;Xo , j j 3 4 [ ` ` ` ` ` ` ` ` ` ` ",
"fXfXfXeXeXeXeXeXeXeXeXR., : : # # rXeXeXdXO I Z.S.#X XB.oXoXJ.H.I.H..X+XV.XX*XP.x.I $ dXeXeX3X, @ : 9 : E.3X$.$.$.$.$.$.$.$.$.$.",
"eXeXeXeXeXeXeXeXeXeXeXcXv.x.b.I c.aXeXeXuXT X q K M.L.P.oXI.&X(.U.I.P.~.P.A.p.9 % # $ dXeXeXgXx.p.M.K.b.cXrX:X$.$.$.$.$.$.$.$.$.",
"eXeXeXeXeXeXeX$.$.eX$.vX~.S.XX%X@XA.eXeXsXE E ; @ + $ w y p.(.y p.(.L 9 9 @ @ @ 2 - d dXeX;X%XL.XX[.L.P.kXtXeXeXeXeXeXeXeXeXeXeX",
"eXeXeXeXeXeXfXeXfXfXeXxX~.C.V._.m.A.iXeXsX_ z C Z q : : ; r n.r r  .r ; > > i Z E g d sXeXdX-.XX).).V.@XkXeXeXeXeXeXeXeXeXeXeXeX",
"eXeXeXeXeXeXeXeXeXeXeXgX@X X}.d.lX/.tXeXuXY._ s h Z N x k | n.n.n.n.A j k B Z i u ~ ) rXeXiXA.-XB..XV.Q.cXeXeXeXeXeXeXeXeXeXeXeX",
"eXeXeXeXeXeXeXeXeXeXeXuX^.M.{. X%XpXeXeXrXT.r.^ a h k b } } k j 7 j C X.W z i 0 ( t.6XeXeXrXpX%XG.B.M.8XrXeXeXeXeXeXeXeXeXeXeXeX",
"eXeXeXeXeXeXeXeXeXeXeXeXrX/.A.x.3.9XeXeXeX6Xe.r.H 0 h ..6 b ..x B Q v z Q z 0 P 9.6.0XeXeXeXE.3.A.b.W.tXeXeXeXeXeXeXeXeXeXeXeXeX",
"` ` ` ` ` ` ` ` ` ` ` ` ` ` +.,X9X,X` ` ' jX9.=.=.3.S u s Q b c c W z E g ( =.5.9.8.<X` ` ` { T.R.+.{ ' ' ` ` ` ` ` ` ` ` ` ` ` ",
"$.eXeXeXfXeXfXfXbXbXbXfXeXfXfXeXeXeXeXeXeXgXW.Z.Z.J ( ~ _ 2 z v n 1 4 g ) 6.$XZ.Z.qXbXfXeXfXfXeXeXeXeXeXeXeXeXeXeXeXeXeXeXeX$.` ",
"eXeXeXeXeXeXeXeXeXeXeXeXeXeXeXeXeXeXeXeXeXeX^.3.Z.2.( d 0XsXiX* 3 uXuX9X) ^ =.Z.Z.iXeXeXeXeXeXeXeXeXeXeXeXeXeXeXeXeXeXeXeXeXeX` ",
"eXeXeXeXeXeXeXeXeXeXeXeXeXeXeXeXeXeXeXeXeXrX9XS S S F ) uXeXeX{ rXeXeXtXd 6.H H S iXtXeXeXeXeXeXeXeXeXeXeXeXeXeXeXeXeXeXeXeXeX` ",
"eXeXeXeXeXeXeXeXeXeXeXeXeXeXeXeXeXeXeXrXE , # # 0 p = = tXeX:X` eXeXeX0X= 8 8 % # + - #.eXeXeXeXeXeXeXeXeXeXeXeXeXeXeXeXeXeX:X` ",
"eXeXeXeXeXeXeXeXeXeXeXeXeXeXeXeXeXeXeX[ X * X * + &   & ] ` ` ` eXeXeXR.X & = , * * * o +.eXeXeXeXeXeXeXeXeX$.$.eX$.eX` ` ` ` ` ",
"eXeXeXeXeXeXeXeXeXeXeXeXeXeXeXeXeXeXeX& o X X . X . & [ eXeXeX` eXeXeX4X- + X X o * o o [ eXeXeXeXeXeXeXeXeXeXeXfXeXfXfXeXeXeX` ",
"$.eXeXeXeXeXeXeXeXeXeXeXeXeXeXeXeXeXeXtX5XE.@.@.2XtXtXeXeXeX$.` $.eXeXeXeXtX5X2X@.#.2X2XrXeXeXeXeXeXeXeXeXeXeXeXeXeXeXeXeXeX$.` ",
"` ` ` ` ` ` ` ` ` ` ` ` ` ` ` ` ` ` ` ` ` ` ` ` ` ` ` ` ` ` ` ` ` ` ` ` ` ` ` ` ` ` ` ` ` ` ` ` ` ` ` ` ` ` ` ` ` ` ` ` ` ` ` ` ",
"eXeXeXeXeXeXeXeXeXeXeXeXeXeX$.` $.eXeXeXfXeXfXfXfXbXbXbXfXfXeXeXeXeXeXeXeXeXeXeXeXeXeXeXeXeX$.` $.eXeXeXfXeXfXfXfXbXbXbXfXfXeXeX",
"eXeXeXeXeXeXeXeXeXeXeXeXeXeXeX` eXeXeXeXeXeXeXeXeXeXeXeXeXeXeXeXeXeXeXeXeXeXeXeXeXeXeXeXeXeXeX` eXeXeXeXeXeXeXeXeXeXeXeXeXeXeXeX",
"$.$.$.$.$.$.$.$.$.:XeXeXeXeXeX` eXeXeXeXeXeX:X$.$.$.$.$.$.$.$.$.eXeXeXeX$.$.$.eXeX$.eXeX` ` ` ` eXeXeXeXeXeX:X$.$.$.$.$.$.$.$.$.",
"$.$.$.$.$.$.$.$.$.$.:XeXeXeXeX` eXeXeXeXeX:X$.$.$.$.$.$.$.$.$.$.eXeXeXeXeXfXeXeXeXfXfXeXfXeX:X` eXeXeXeXeX:X$.$.$.$.$.$.$.$.$.$.",
"$.$.$.$.$.$.$.$.$.$.$.eXeXeXeX` eXeXeXeXeX$.$.$.$.$.$.$.$.$.$.$.eXeXeXeXeXeXeXeXeXeXeXeXeXeXeX` eXeXeXeXeX$.$.$.$.$.$.$.$.$.$.$.",
"` ` ` O.$.$.$.$.$.$.$.eXeXeXeX` eXeXeXeXeX$.$.$.$.$.$.$.O.` ` ` eXeXeXeXeXeXeXeXeXeXeXeXeXeXeX` eXeXeXeXeX$.$.$.$.$.$.$.O.` ` ` ",
"` ` ` ` O.$.$.$.$.$.$.:XeXeX$.` $.eXeXeX:X$.$.$.$.$.$.O.` ` ` ` eXeXeXeXeXeXeXeXeXeXeXeXeXeX$.` $.eXeXeX:X$.$.$.$.$.$.O.` ` ` ` "
};
