/* XPM */
static char *result[] = {
/* columns rows colors chars-per-pixel */
"64 64 249 2 ",
"   c #1C0B01",
".  c #27180A",
"X  c #2B1710",
"o  c #292706",
"O  c #373205",
"+  c #352714",
"@  c #312E0B",
"#  c #393623",
"$  c #1D2200",
"%  c #4A1C04",
"&  c #483508",
"*  c #4B281A",
"=  c #5C2C1C",
"-  c #582918",
";  c #57361A",
":  c #4B310F",
">  c #642D1B",
",  c #662D18",
"<  c #63321E",
"1  c #6B331D",
"2  c #492B22",
"3  c #5B2D21",
"4  c #542C23",
"5  c #493727",
"6  c #5C3323",
"7  c #5C352B",
"8  c #5D3A2C",
"9  c #543526",
"0  c #5B3C34",
"q  c #573C35",
"w  c #643524",
"e  c #6B3623",
"r  c #6C3925",
"t  c #643A2B",
"y  c #6C3C2B",
"u  c #633827",
"i  c #733A26",
"p  c #733C2A",
"a  c #783B26",
"s  c #623C32",
"d  c #6A3E32",
"f  c #3F4617",
"g  c #474718",
"h  c #57451A",
"j  c #4E510D",
"k  c #63491D",
"l  c #684C0E",
"z  c #666D18",
"x  c #484625",
"c  c #584729",
"v  c #545528",
"b  c #594736",
"n  c #59563B",
"m  c #4B5630",
"M  c #694728",
"N  c #7B422D",
"B  c #74472D",
"V  c #6A5529",
"C  c #76532C",
"Z  c #6B4234",
"A  c #6B453A",
"S  c #6D493D",
"D  c #664637",
"F  c #734333",
"G  c #794433",
"H  c #754C34",
"J  c #71463A",
"K  c #744A3C",
"L  c #7C4C3B",
"P  c #7A4A36",
"I  c #6A5335",
"U  c #75543B",
"Y  c #7C543B",
"T  c #775437",
"R  c #56652B",
"E  c #596A38",
"W  c #4C7035",
"Q  c #6B6729",
"!  c #77722C",
"~  c #787B36",
"^  c #6F6D31",
"/  c #5E7800",
"(  c #5A5548",
")  c #6C4B42",
"_  c #674B46",
"`  c #7C4D44",
"'  c #734D43",
"]  c #6C534C",
"[  c #685746",
"{  c #745146",
"}  c #7C5343",
"|  c #73534B",
" . c #7B544B",
".. c #7B5A46",
"X. c #7B5A52",
"o. c #775956",
"O. c #6B5554",
"+. c #5A6746",
"@. c #5B7648",
"#. c #646447",
"$. c #667649",
"%. c #776658",
"&. c #776A4F",
"*. c #6E5967",
"=. c #6F5A68",
"-. c #725E6A",
";. c #77626A",
":. c #7A6672",
">. c #757462",
",. c #834936",
"<. c #82543D",
"1. c #80422D",
"2. c #947B28",
"3. c #A87D3B",
"4. c #875D13",
"5. c #825443",
"6. c #825A4C",
"7. c #865948",
"8. c #845B5B",
"9. c #855D53",
"0. c #814A43",
"q. c #87654C",
"w. c #84635A",
"e. c #876658",
"r. c #97775A",
"t. c #AD7F4C",
"y. c #896A62",
"u. c #946A66",
"i. c #88786C",
"p. c #99756B",
"a. c #926475",
"s. c #88757C",
"d. c #987873",
"f. c #806C78",
"g. c #AD707B",
"h. c #A67C76",
"j. c #A07063",
"k. c #748E14",
"l. c #58893C",
"z. c #758937",
"x. c #7BA132",
"c. c #578749",
"v. c #5E9648",
"b. c #57844C",
"n. c #68874A",
"m. c #66974B",
"M. c #698758",
"N. c #788856",
"B. c #689756",
"V. c #759857",
"C. c #778C48",
"Z. c #6BA157",
"A. c #74A658",
"S. c #67A24E",
"D. c #739763",
"F. c #768A64",
"G. c #74A461",
"H. c #6DA460",
"J. c #879B3B",
"K. c #8A952F",
"L. c #87A737",
"P. c #99AB38",
"I. c #97B53B",
"U. c #86AB32",
"Y. c #A4AD36",
"T. c #A6B83B",
"R. c #A5AB2A",
"E. c #859318",
"W. c #9AC23D",
"Q. c #A5C33B",
"!. c #8B9947",
"~. c #909553",
"^. c #89A846",
"/. c #99A948",
"(. c #8BB445",
"). c #99B747",
"_. c #8AA959",
"`. c #9AAA57",
"'. c #93B356",
"]. c #A5BC4D",
"[. c #A7BA47",
"{. c #B4BE4A",
"}. c #A7AA54",
"|. c #A8B957",
" X c #B6BB59",
".X c #ACA54C",
"XX c #888669",
"oX c #968466",
"OX c #8B9769",
"+X c #948F71",
"@X c #A68878",
"#X c #A79672",
"$X c #94AC6B",
"%X c #A8BA64",
"&X c #B4BC64",
"*X c #ABA775",
"=X c #AAB877",
"-X c #A9AE6D",
";X c #B8854E",
":X c #C5BB5A",
">X c #9BC246",
",X c #A4C444",
"<X c #A5C34C",
"1X c #ABC34B",
"2X c #A9C745",
"3X c #B4C74D",
"4X c #ABC354",
"5X c #A9C656",
"6X c #B5C75A",
"7X c #B5D150",
"8X c #B7C766",
"9X c #B4CA6F",
"0X c #C2C95B",
"qX c #C4C965",
"wX c #C7D376",
"eX c #937C83",
"rX c #8C7A81",
"tX c #B77F83",
"yX c #B17781",
"uX c #968987",
"iX c #B68788",
"pX c #B19591",
"aX c #93AB87",
"sX c #B9BB84",
"dX c #BBA69B",
"fX c #ADB18D",
"gX c #BDACA5",
"hX c #C39490",
"jX c #C69A95",
"kX c #C89E9A",
"lX c #C7A29C",
"zX c #C1A98C",
"xX c #CAAAA6",
"cX c #D1B1A5",
"vX c #D5BEAB",
"bX c #CDB4AD",
"nX c #AAC48A",
"mX c #BBD1A3",
"MX c #C5C893",
"NX c #DCCABE",
"BX c #DEC2BE",
"VX c #CECEAA",
"CX c #CFE1A6",
"ZX c #DDED9A",
"AX c #D7C8C8",
"SX c #EAD6D2",
"DX c #E9D3CF",
"FX c #F6E8E6",
"GX c #ECE8D4",
/* pixels */
"*.*.*.*.*.*.*.*.*.*.*.*.*.*.*.s.d.uXrXeXeXuXeXeXeXeXrXeXrXrXs.rXeXeXeXpXpXpXkXlXkXlXxXxXbXbXdXAXAX*.*.*.*.*.*.*.*.*.*.*.*.*.*.*.",
"*.*.*.*.*.*.a.g.g.g.g.tXhXhXhXlX;._ y.] o.| o.X.X. .| ] | o.| _ ] _ ] _ ] ) _ ]  .' O._ o.O._ f.FXpXhXhXtXg.g.g.g.a.*.*.*.*.*.*.",
"*.*.*.*.*.*.g.g.g.g.g.hXhXhXhXhXO.9 | q s 0 s 0 s D 0 0 0 0 0 q q q q 7 0 7 7 7 s 7 q 7 q q 2 o.FXhXhXhXhXg.g.g.g.g.*.*.*.*.*.*.",
"*.*.*.*.*.a.g.g.g.g.g.hXhXhXhXhX8.b w.{ X.| X.{ {  .{ ' | ' ) ) ) ) _ ) A A J J ) A ) s | _ q -.FXhXhXhXhXg.g.g.g.g.a.*.*.*.*.*.",
"a.g.g.g.g.g.g.g.g.g.g.hXhXhXhXhXX.9 X.A ) Z D D A J K S A A A s ) A A d A d d d y t d d ' _ 5 o.SXhXhXhXhXg.g.g.g.g.g.g.g.g.a.*.",
"g.g.g.g.g.g.g.g.g.g.g.hXhXhXhXhXe.8 6.Z Z u t u Z J J K K K K K ) s s s d d d p 3 3 d d ` ' s y.SXhXhXhXhXg.g.g.g.g.g.g.g.g.g.*.",
"g.g.g.g.g.g.g.g.g.g.g.hXhXhXhXhXu.t 9.y y 6 w r u t d Z F F J ' J d 3 3 3 e e > - > w w ' J u w.SXhXhXhXhXg.g.g.g.g.g.g.g.g.g.*.",
"a.g.g.g.g.g.g.g.g.g.g.tXhXhXhXhXu.w 7.t w = w r > w e y y y F 6.0.d e w y e i e > > e w K d u w.SXhXhXhXtXg.g.g.g.g.g.g.g.g.a.*.",
"*.*.*.*.*.*.*.*.*.*.*.*.*.*.*.*.| w 0.y y e < = - N w w p e y 8.8.F y w p 1 - 1 , > r r d 7.= w.AX*.*.*.*.*.*.*.*.*.*.*.*.*.*.*.",
"g.g.g.g.g.g.g.g.g.g.tXhXhXhXg.*.u.w 5.y y w < = i 5.G G <.F 0.6.8.p.r e p i 1 i , > e r d 7.= w.DXhXhXhXhXtXg.g.g.g.g.g.g.g.g.g.",
"g.g.g.g.g.g.g.g.g.tXhXhXhXhXhX*.p.e 5.y r < < < = <.,.<.7.0.p.= 7 b p r G N p ,.1 > e i F 7.- w.SXjXhXhXhXhXtXg.g.g.g.g.g.g.g.g.",
"hXhXhXhXhXhXhXhXhXhXhXhXhXhXhX=.p.w Y r y < r r % G G <.@XzXu % ; #X@Xd F N N ,.1 1 w p F 7.4 w.SXhXhXhXhXhXhXhXhXhXhXhXhXhXhXhX",
"hXhXhXhXhXhXhXg.g.hXg.hX*.*.*.-.h.w 5.Z q.F y r - <.G *X-X&X.X2. X X/.|.#X1 i ,.1 w r.*X@X7.= w.DXhXhXhXhXhXhXhXhXhXhXhXhXhXhXhX",
"hXhXhXhXhXhXcXhXcXcXhXhXhXhXtX:.h.u 5.q.#X~.*Xr.> 7.*X`.|.9X:X&X.X{.3X5X`.q.r ,.j.=X-XnX@Xq.= w.DXhXhXhXhXhXhXhXhXhXhXhXhXhXhXhX",
"hXhXhXhXhXhXhXhXhXhXhXhXhXhXhX;.h.y 5.y *X!.z./.~.*XC.g j !.%X/.].8Xz.O R ~.nX-XJ.z.`.*X<.9.3 8.BXhXhXhXhXhXhXhXhXhXhXhXhXhXhXhX",
"hXhXhXhXhXhXhXhXhXhXhXhXhXhXg.:.u.t ` w oX|.E./ /. X`.$X^ j z.6X X! j OX-X`. XP.k.x.=XT F 9.= %.xXhXhXhXhXhXhXhXhXhXhXhXhXhXhXhX",
"*.*.*.*.*.*.*.*.-.*.*.*.*.*.-.;.O.u } e p =XL.k.K.[.{.9Xv CX].Y.Y.0X~ #XZX/.{.k.k.(.=Xy d 9.2 o.eX=.=.=.*.*.*.*.*.*.*.*.*.*.*.*.",
"g.hXhXhXcXhXcXcXBXAXNXcXhXcXcXjXd.7 } w i *X'.k.Y.T.0XqXo ~ {.R.R.3Xj o qX{.6Xk.J.9XuXy G 9.* p.kXhXhXhXhXhXhXhXhXhXhXhXhXhXg.*.",
"hXhXhXhXhXhXhXhXhXhXhXhXhXhXhXhXd.s  .e i i #X`.P.7XI.3XwX XY.Y.R.Y. XwXqX/.4X]._.*XF d J 6.* d.hXhXhXhXhXhXhXhXhXhXhXhXhXhXhX*.",
"hXhXhXhXhXhXhXhXhXhXhXhXhXhXhXhXj.s 0.w i i a MX[.,XT.P.Y.R.Y.{.Q.Y.Y./.].[.<X|.r.p y y J 6.* h.hXhXhXhXhXhXhXhXhXhXhXhXhXhXhX*.",
"hXhXhXhXhXhXhXhXhXhXhXhXhXhXhXhXd.t Y w a i 7.-X[.[.8X8X{.T.E.E.K.K.].].|.5X5XP.=Xq.y t J 6.4 iXhXhXhXhXhXhXhXhXhXhXhXhXhXhXyX*.",
"hXhXhXhXhXhXhXhXhXhXhXhXhXhXhXjXp.8 } w e.q.T ~.6XU.).ZX8X7XT.K.R.P.3XZX5X(.I.4X~ I i.d.J 6.4 iXkXhXhXhXhXhXg.g.hXg.hX*.*.*.*.*.",
"hXhXhXhXhXhXhXhXhXhXhXpXhXhXhXjXu.7 6.y.D V k ! {.6X<X8X6X[.1X).T.Q.4XwX5X).2X[.^ M M S +Xe.4 iXcXhXhXhXhXhXhXhXcXhXcXcXhXhXhX*.",
"g.hXhXhXhXhXhXhXhXhXhXhXhXhXhXjXp.) O.) Y <.M V /.].<X).).J.].L.W.I.x.W.5X<X[.J.k I Y U S [ %.h.BXhXhXhXhXhXhXhXhXhXhXhXhXhXg.*.",
"*.*.*.*.*.*.*.*.*.*.*.*.*.*.*.:.s.[ D | <.G U M Q .X6X>X5X5X).2X2X7X2XW.5X5X!.^ V J Y B T D _ s.BX*.*.*.*.*.*.*.*.*.=.*.*.*.*.*.",
"hXhXhXhXhXhXhXhXhXhXhXhXhXhXg.rX%.(  .K L ,.5.Z h ! /.,X).<X2X3XQ.T.>X<X5X/.! h T L L ,.Y ..( XXFXhXhXhXcXhXcXcXcXBXNXBXcXcXhXhX",
"hXhXhXhXhXhXhXhXhXhXhXhXhXhXpXaX+.I ..Y <.N P T U & Q |.9X].[..X{.&X8X|.!.Q M k T H F Y T I n +.VXpXhXhXhXhXhXhXhXhXhXhXhXhXhXhX",
"g.g.g.g.g.g.g.g.g.yXhXhXhXpXgXM.F.E c M B M B <.5.c h Q ^ `.&X.X}.}.~.^ j h I Y L Y Z J V v $.M.>.dXhXhXhXhXhXhXhXhXhXhXhXhXhXhX",
"g.g.g.g.g.g.g.g.g.g.tXhXhXxXD.B.V.~ R c 9 H T B M Y U g & v ^ ! ^ V c ; c I Y C B <.u c c v N.G.B.D.dXpXhXhXhXhXhXhXhXhXhXhXhXhX",
"g.g.g.g.g.g.g.g.g.g.g.hXpXaXb.H.m.B.n.#.c D Y B C <.U Y T ; : ; 9 9 c I T Y L B B <.c 9 #.$.V.m.H.b.aXhXhXhXhXhXhXhXhXhXhXhXhXhX",
"*.*.*.a.g.g.g.g.g.g.g.hXcXM.B.B.S.Z.B.M.n b A } K 5.H M P <...U U U T Y T H L 7.`  .b c $.B.B.S.m.m.M.lXhXhXhXhXhXhXhXhXhXhXhXhX",
"*.*.*.*.a.g.g.g.g.g.g.tX$XD.B.Z.v.Z.b.+.x b ) ` L P C Y Y B ` ' U Y Y B H P G K } ' b m W c.v.S.v.G.B.aXhXhXhXhXhXhXhXhXhXhXhXhX",
"*.*.*.*.*.*.=.=.=.=.=.rXD.D.B.Z.S.c.@.b.g c M Y N B C T T Y ` ` 0.K T T U } L L T c g m W @.b.H.H.v.H.D.:.*.*.*.*.*.*.*.*.*.*.*.",
"g.hXhXhXhXcXcXcXxXbXjXgXM.Z.Z.S.v.W B.$X~.~ Q V C C V V V I Y <.P H I M D V C C h V z.!.nXb.W b.v.Z.v.M.dXyXyXg.g.a.*.*.*.*.*.*.",
"hXhXhXhXhXhXhXhXhXhXhXaXc.m.A.v.v.W nXCX$X`.~.~.C.~ ! Q V Q V V Q Q ^ ^ ^ ~ ~ K.!.!.].^.CXfXW B.v.Z.Z.n.fXyXg.g.g.g.*.*.*.*.*.*.",
"hXhXhXhXhXhXhXhXhXhXhX$Xm.l.m.m.l.W mXCX!.^.'.'.'.'./.}..X.X}.}.}.`.`.}.`././.'.).).(.^.zX+XW b.S.v.m.m.aXyXg.g.g.g.a.*.*.*.*.*.",
"hXhXhXhXhXhXhXhXhXjXdXF.V.V.C.D.c.@.w.CXC.(.(.x.x.(.>X1X1X3X3X3X7XQ.1X1X].].).(.x.(.x.(.dX) F.W G.m.A.OX$XpXyXg.g.g.g.g.g.g.a.*.",
"hXhXhXhXhXhXhXhXhXkX( n $.C.C.N.W >.9.CX^.^.).I.>X2X2X1X,XQ.T.Q.Q.Q.Q.2X2X1X<X>X(.>X>XA.oX_ F.+.$.$.N.$.( O.tXg.g.g.g.g.g.g.g.*.",
"hXhXhXhXhXhXhXhXhXpXi.5 x c x n . >. .GX%XL.L.).2XQ.,XQ.Q.,X,X,XQ.Q.Q.2X1X1X<X<Xx.(.(.$Xe.` #.X [ ( c 5 # ;.g.g.g.g.g.g.g.g.g.*.",
"g.hXhXhXhXhXhXhXhXhXdX5 b 8 q q X i.{ #XnX'.^.I.1X,X,X2X2X2X2X,X2X2X2X2X1X[.[.,X>X(.^.MX9.A %.X 2 q c D 5 uXg.g.g.g.g.g.g.g.a.*.",
"*.*.*.*.*.*.*.*.=.=.s.5 8 c D 2 $ %.7.d OXn.9X^.5X).<X).T.5X6X5X1X>X<X>X[.1XT.3X(.'.A.sXA ' y.. 2 M c ; q :.*.*.*.*.*.*.*.*.*.*.",
"cXcXcXhXhXhXhXhXhXhXhX@X: h & o O w 7.6 fXo R _.5X6X4X<X4X3X[.[.4X].1X4X|.6X0X4XC.^ @ fXJ ' ] 5 O & k : @XtXg.g.g.g.g.g.g.g.g.g.",
"hXhXhXhXhXhXhXhXhXhXhXVX~.!.K.~ ~.q.6.w ..v o j z !.|.4X6X&XqX0X.X:X|. X|./.2.j O O @ e.A ' oX!.J.J.}.~.MXjXtXyXg.g.g.g.g.g.g.g.",
"hXhXhXhXhXhXhXg.g.hXg.VX=X4X&X8X%X-X6.w p.[ I : O O o j z K.;X4.;X.X! j j o O O 9 # E e.A w.9X'.6X<X6X%XMXjXhXhXpXhXhXhXhXhXhXhX",
"hXhXhXhXhXhXcXhXcXcXhXVX%X).,X).'.`.p.w e.$.D ..V k & & & l 3.4.4.3.l & & & V I [ c ( w.D uXz.5XW.W.>X5XMXhXhXhXhXhXhXhXhXhXhXhX",
"hXhXhXhXhXhXhXhXhXhXhXvX%X<X,XI.9X=Xq.w Y XX&.c V Y C T k ,.t.t.;X3.C k C C U I x +.+.7 Z +X_.wX>X2X>X%XvXhXhXhXhXhXhXhXhXhXhXhX",
"hXhXhXhXhXhXhXhXhXhXhXkXsX(.<X4X=X#X5.= Z D.OX@.v c A ,.,.,.C M l B T } 7.K c & $.D.OX3 d ) oX&X].P./.sXjXhXhXhXhXhXhXhXhXhXhXhX",
"hXhXhXhXhXhXhXhXhXhXhXhXjX*X`.~.C.+X5.= = aXB.Z.E v I } J <.<.C P U U A J D c E D.b.XX4 d K oXC.~.!.-XjXhXhXhXhXhXhXhXhXhXhXhXhX",
"*.*.*.*.*.*.*.*.*.*.=.=.*.*.f.pXpX..H - - MXn.l.C.z.E x b ) K Y U Y D b c $.l.V.V.D.6.w w  .s @XuX+X-.=.*.*.*.*.*.*.*.*.*.*.*.*.",
"g.hXhXhXcXhXcXcXNXBXNXcXhXcXcXlX) < K - = oX$X_._.l.@.+.%.5 D K H * b b $.n.%X_.'.OX3 3 w ,.* u.lXhXjXpXhXhXhXhXhXhXhXhXhXhXg.*.",
"hXhXhXhXhXhXhXhXhXhXhXhXhXhXpXkX' 3 L = = = sXz.A.n.$.m @Xu.p.* c e.t XX$.$.l._._.| 3 3 t ` - u.jXhXhXhXhXhXhXhXhXhXhXhXhXhXhX*.",
"hXhXhXhXhXhXhXhXhXhXhXhXhXhXhXlX{ 6 ' 4 = Z XXR R R +.@.5.y w ` t * * S m M.W W m ..d 3 s  .4 d.jXhXhXhXhXhXhXhXhXhXhXhXhXhXhX*.",
"hXhXhXhXhXhXhXhXhXhXhXhXhXhXhXkXo.7 { s b ; O . g m # # [ Z p J y 3 3  .# x f f o o # O.s o.4 d.jXhXhXhXhXhXhXhXhXhXhXhXhXhXtX*.",
"hXhXhXhXhXhXhXhXhXhXhXhXhXhXhXkXo.7  .] X + X + . + $ + J P d p y 6 w O.o @ o # O + + X o. .4 d.hXhXhXhXhXhXg.g.hXg.hX*.*.*.*.*.",
"hXhXhXhXhXhXhXhXhXhXhXhXhXhXhXkXw.7 X.X .   .   .   . b p ,.,.p i > w ..+ . + X X + X X _  .7 h.jXhXhXhXhXhXhXhXcXhXcXcXhXhXhX*.",
"g.hXhXhXhXhXhXhXhXhXhXhXhXhXjXkXw.6 } S 9.} ] | D 9.Z i e ,.,.a p , e > 1 <.5.8.X.O.o.o.' ` 4 d.hXhXhXhXhXhXhXhXhXhXhXhXhXhXg.*.",
"*.*.*.*.*.*.*.*.*.*.*.*.*.*.=.:.] 9 ` w w < r , , 1 i N ,.1.,.,.1.p a 1 1 a 1 1 , > r < F J t o.;.*.*.*.*.*.*.*.*.*.*.*.*.*.*.*.",
"hXhXhXhXhXhXhXhXhXhXhXhXhXhXg.f. .= K = w < < , N N N N 1.1.1.p 1 1 , , 1 1 1 1 , 1 i > F F w o.yXhXhXhXcXhXcXcXcXAXNXBXcXcXhXhX",
"hXhXhXhXhXhXhXhXhXhXhXhXhXhXhX:.e.t } t u - - - p e 1 1 1 1 1 1 1 1 , 1 1 , , , - - e > F P y ;.kXhXhXhXhXhXhXhXhXhXhXhXhXhXhXhX",
"g.g.g.g.g.g.g.g.g.tXhXhXhXhXhX:.w.4  .t M 6 r u u e < < 1 1 w w , > ; < ; , - - w w y w F F 6 o.jXhXhXhXhXhXtXg.g.g.g.g.g.g.g.g.",
"g.g.g.g.g.g.g.g.g.g.tXhXhXhXhXf.y.9 ] 0 7 * * * Z t 8 t t 8 7 6 4 ; ; 6 k w 6 6 * * 6 7 S ) d ;.hXhXhXhXhXtXg.g.g.g.g.g.g.g.g.g.",
"g.g.g.g.g.g.g.g.g.g.g.hXhXhXhXf.o.* ] | 8.| 8.8.9.o.8.8.8.8.9.X.y.y.y.e.e.u.w.X. .8.e.X.X.q q o.hXhXhXhXhXg.g.g.g.g.g.g.g.g.g.g.",
"*.*.*.a.g.g.g.g.g.g.g.hXhXhXhX:.d.-.iXiXhXyXg.g.g.g.g.g.a.*.*.=.hXhXhXhXhXhXhXhXhXhXhXhXiX@X8.-.hXhXhXhXhXg.g.g.g.g.g.g.a.*.*.*.",
"*.*.*.*.a.g.g.g.g.g.g.tXhXhXg.*.g.jXpXhXtXg.g.g.g.g.g.a.*.*.*.=.hXhXhXhXhXhXhXhXhXhXhXhXjXkXiX=.g.hXhXhXtXg.g.g.g.g.g.a.*.*.*.*."
};
