/* XPM */
static char *_2b5c80280574031bf4f3bb1e64d6fcdREW3zFPKulDhqfsT[] = {
/* columns rows colors chars-per-pixel */
"64 64 243 2 ",
"   c #030202",
".  c #0B0403",
"X  c #0C0A05",
"o  c #04050A",
"O  c #0A050B",
"+  c #030A0B",
"@  c #0C0B0B",
"#  c #040804",
"$  c #130A05",
"%  c #130D0B",
"&  c #160908",
"*  c #0B1406",
"=  c #14120E",
"-  c #1B130D",
";  c #151706",
":  c #0D0C12",
">  c #070714",
",  c #140D13",
"<  c #0C1314",
"1  c #0B1317",
"2  c #141313",
"3  c #1A1513",
"4  c #1C1915",
"5  c #13151A",
"6  c #151A1C",
"7  c #1C1B1B",
"8  c #191718",
"9  c #231A15",
"0  c #231D1B",
"q  c #261A18",
"w  c #28180D",
"e  c #1D221A",
"r  c #1C240B",
"t  c #23221E",
"y  c #2A231D",
"u  c #262B1A",
"i  c #2B3418",
"p  c #352E16",
"a  c #1B1D24",
"s  c #181825",
"d  c #130F21",
"f  c #241D23",
"g  c #1D2224",
"h  c #1D2529",
"j  c #242323",
"k  c #2B2423",
"l  c #2C2925",
"z  c #23252C",
"x  c #252A2C",
"c  c #2B2B2B",
"v  c #262826",
"b  c #322B25",
"n  c #332C2B",
"m  c #372928",
"M  c #2C3524",
"N  c #33332D",
"B  c #3A322D",
"V  c #353827",
"C  c #2B2C33",
"Z  c #272934",
"A  c #322E34",
"S  c #2C3135",
"D  c #343333",
"F  c #3C3433",
"G  c #3C3A34",
"H  c #3C3B3B",
"J  c #373838",
"K  c #4C2E19",
"L  c #453428",
"P  c #423A35",
"I  c #433C3B",
"U  c #473937",
"Y  c #4F352A",
"T  c #3D461D",
"R  c #3A4427",
"E  c #3C4236",
"W  c #4C5115",
"Q  c #47453C",
"!  c #59473A",
"~  c #4A5435",
"^  c #535B35",
"/  c #494F2A",
"(  c #6D5036",
")  c #5A792C",
"_  c #5A683A",
"`  c #5D7C32",
"'  c #5F7230",
"]  c #56642B",
"[  c #636D3B",
"{  c #63723D",
"}  c #66793A",
"|  c #6B7335",
" . c #6B780F",
".. c #383B43",
"X. c #2C3240",
"o. c #423E43",
"O. c #3C4447",
"+. c #3F4A50",
"@. c #4C4443",
"#. c #4C4C4B",
"$. c #464747",
"%. c #534A47",
"&. c #4D5349",
"*. c #58564A",
"=. c #4B4E54",
"-. c #4A5354",
";. c #535454",
":. c #595958",
">. c #564D53",
",. c #685748",
"<. c #635757",
"1. c #6F5645",
"2. c #5C6945",
"3. c #5C6259",
"4. c #646B45",
"5. c #657342",
"6. c #6A7444",
"7. c #6B7B44",
"8. c #697A46",
"9. c #727D44",
"0. c #757C4A",
"q. c #65665A",
"w. c #796757",
"e. c #6B7457",
"r. c #777455",
"t. c #5A5D64",
"y. c #5C6368",
"u. c #676968",
"i. c #746966",
"p. c #6C726A",
"a. c #74756B",
"s. c #696B73",
"d. c #6C7375",
"f. c #787976",
"g. c #625762",
"h. c #8C7054",
"j. c #8B776C",
"k. c #A27D60",
"l. c #5E8232",
"z. c #5E812F",
"x. c #628434",
"c. c #65853A",
"v. c #658A3A",
"b. c #688A39",
"n. c #658A30",
"m. c #6D8547",
"M. c #75834B",
"N. c #76864A",
"B. c #7C8653",
"V. c #798954",
"C. c #7E9658",
"Z. c #708D4A",
"A. c #7D837A",
"S. c #858B5A",
"D. c #85995B",
"F. c #8A8A54",
"G. c #8CA25B",
"H. c #A7B44F",
"J. c #848B67",
"K. c #889A64",
"L. c #848679",
"P. c #998775",
"I. c #948C6F",
"U. c #A98E75",
"Y. c #8CA465",
"T. c #95A76A",
"R. c #98AB74",
"E. c #ADB573",
"W. c #C3AA7B",
"Q. c #BFCF6E",
"!. c #BCCD5D",
"~. c #CBD475",
"^. c #D9E479",
"/. c #C1D25F",
"(. c #919934",
"). c #767C82",
"_. c #7D8383",
"`. c #888A87",
"'. c #8E918B",
"]. c #93938B",
"[. c #888D92",
"{. c #8D9596",
"}. c #949593",
"|. c #989B99",
" X c #958B85",
".X c #B19588",
"XX c #9DA398",
"oX c #9CA68B",
"OX c #A3A59C",
"+X c #B2AF90",
"@X c #999CA4",
"#X c #9CA3A3",
"$X c #A3A4A2",
"%X c #A8ABA9",
"&X c #AEB1AC",
"*X c #B4B5AC",
"=X c #A8ACB3",
"-X c #ADB3B5",
";X c #B4B5B4",
":X c #BABCB5",
">X c #B6B9BA",
",X c #B7ADA6",
"<X c #C9AE90",
"1X c #CAB8AB",
"2X c #BBC78D",
"3X c #BCC4B9",
"4X c #BAC3A6",
"5X c #CDD690",
"6X c #D6E48E",
"7X c #C3C3BB",
"8X c #CCD0B3",
"9X c #E2ECA2",
"0X c #BBBEC4",
"qX c #BCC1C6",
"wX c #C3C5C3",
"eX c #CCCDCB",
"rX c #C6C9C7",
"tX c #CDD2C9",
"yX c #D4D5CC",
"uX c #CACDD2",
"iX c #CED2D3",
"pX c #D4D5D2",
"aX c #DCDDDB",
"sX c #D7D9D6",
"dX c #D4CBC5",
"fX c #E2DBD2",
"gX c #DDE1DA",
"hX c #DEE7C9",
"jX c #E3E6DC",
"kX c #EBE9CC",
"lX c #D8DAE3",
"zX c #DEE2E5",
"xX c #E4E5E3",
"cX c #E6E9E5",
"vX c #E9EAE6",
"bX c #ECEDEA",
"nX c #E5E7EA",
"mX c #EDF3EB",
"MX c #F1F2EC",
"NX c #F8F9EB",
"BX c #FCFDFC",
"VX c #F6F6F6",
"CX c #EBEDF0",
/* pixels */
"o @   2 % @ @ @   @ 2 7 @ o 2 #   @ j 8     @ v 2 o : 2 7 % 8   @ % 9 - & $   8 c ;.I 3 B n f k f 5 O , f   k c O O   #.J = 7 X ",
"O 2 2 @ 7 2 O @ @ 7 @ @ 2 o @ 2 2 @ 7 8 @ 2 8 8 7 2 o : v k = 4 t % y y m y j 5 7 J X 0 m . O , O A $.A 3 @ 4 ,   @ c p.n 8 c @ ",
"@ @ 2 2 7 o 2 @ o @     2 v D 2 @ 8 2 8 0 n @ 0 v @ 2 v @   X B @.%.b w w B 0 o 7 J v 9 b 3 O   8 ..D k   0 F . O v @.j.n 3 8 @ ",
"2 @ @ 8 7 @ 7 v D l 2 8 v k 2 2 o @ v 3 % 0 3 3   f 7 3 3 9 Q 7XdX,Xw.,.! y k X 7 t N X 4 3 : f C v k 3 $ b %.k 3 3 v >.u.H   O ",
"= @ 8 2 v t 2 H v 0 t v 7 7 @ 7 2 , , 3 . P k 3 0 % 3 B F q ! ,X,.P.U.w.h.,.B k   2 8 8 = O 7 :.#.A D k . P y P B Q f.F i.#.8 8 ",
"@ @ 7 2 v 0 7 l n = @ @   t 7 @ 0 8 3 b 3 k 9 q k 0 b 0 $ $ L ,.Y w.1XP.h.w.@.% 8 8 @ @ =   2 S , @ 8 c 0 - Q - - B %.% 0 F <.#.",
"3 X % 0 7 3 n = 7 @   3 D c %   0 @ 3 %.0 n B n n F >.P - & %..X1X<X<X<XP.h.m f c 3 2 . X o c $.C : f F 4 b Q - & y q %.F n >.I ",
"v 3 % k 8 0 n 8 O @ % 7 D t k 3 @ 7 l y % % k 9 n 3 k k q 9 U +XU.( k.k.h.j.q F #.A 8     v J a s..., J k Q q . & 9 9 %.@.I @.m ",
"v k c % . % X 0 X % 0 . t 3 0 k % k n k B 9 . 0 b Q 0 3 P L U j.h.( ( k.k..Xq m u.v O O l f $.: f a s H F %.$ % U 9 % I b % 9 $ ",
"3 0 % O v   4 F l Q b k G P t 0 O @.F I F I n G l l 3 y q y q ! 1.h.( h.U.1XU . f @ k 0 4 7 #.z > d > 5 >.@.. - %.@.B i.:.. % 9 ",
"X   n 4 0 k n I :.L.9 P k @.q G 0 :.n X . 0 9 B 3 3 3 .   . w ,.( 1.K K k.+XOXb 3 3 F F I 3 5 s a , > O A F $ 0 %.P P %.b % F <.",
"l H I n @.@.l 3 G Q - 0 9 . F Q n H k = n F . y c F 0 F B $ $ ! ! K K Y h.P.fXdX:.8 l m n k @ s f , o o.>.0 n @.F *.<.k n >.@.@.",
"D G @ 0 n = 3 t F B %.n % % y <.Q X 0 n % 3 . . I l k N l $ %.9 w p ! ! ,.,XvX].$X%XQ . . % : O A C 8 D I l :.k . q 0 @ 3 f n k ",
"#.v % :.n b B @.B <.P *.*.F <.F 0 k l q % . . % @.k n % X y 9 - w & ! ! w.8X].&X;X3XxXL.$ k 8 o n ;.n     = % .   % 8 ,     %   ",
"3 c 4 u.@.k y 9 *.@.& I *.%.a.q %.n 3 U %.$ . y F F N 3 3 n B b 3 y j.i.1X%.  :.BXxXcXBX*Xc O 8 a.I . y 4   % I %   I J     O , ",
"9 b . % @.l @.9 l k % % G D k I %.@.0 F k @.P . % . I *.% n 0 @.:.i.7XvXXX  = $XMXxXMXbXBX}.f J :.4 n *.b   - %.% O 4 & f #.4 & ",
"i.j.B 0 i.*.N % X c a > a O : 0 %.%.@.0 . m o.m @.F 9 m - .   I :.7 yXBXi.n J 7XxXgXbXbXMXBXu.A C @ y B - 9 k P A O & $ U i.I . ",
"w.j.i.@.i.t @.N @ A Z s d : o = I n % . - & L <.<.<.P & U 9 9 OXN N MXMX$.u.J :XsXtXsXvXxXBX|.o 5 @ @ Q Q *.F c A , . & - . m q ",
"U B <.n j @ % X X @ O 0 3 3 Q y % 0 n % . - U q P %.@.<. X%.P rXc a.pXwXj f.D &XwX:X7XsXxXVXaX2 @ @ @ 8 X = O , $ . & & %.U . 9 ",
"B 9 %.b   0 = 4 - % $ F Q k  X X9 n :.%.q <.U %.- 3 % b <.U X *X#.`.wX}.l '.t OX|.|.*XeXxXjXBXf.  7 5 : @ @ 5 j Q y % q i.q.& . ",
"Y Y m @.I 3 X B y I b %.a.3 G %.% A $.@.>.<.i.<.3 G 0 % f     '.`.:XBXf.v J   L.f.`.*XyXvXcXVXwX$.;.a > o o : f G y . % n y f O ",
"P.! j.<.>.n - - t I @.Q #.0 8 4 @ ;.#.$.F P  XF X X 8 3 % % O F @.xXrXD   o   a.].`.OXsXxXvXbXBX'.z > > > > > o   X % 0 o.j A , ",
"Y j.P.i.% % - 9 , O t t 7 c e X :.:.f.;.#.G >.3 @ @   @ O     @ $.D l H u.j   a.}.|.|.wXcXVXxXpXwX2 : d > > C C 7   O A $.s z o ",
"& L <.U @.$ X t , O @ O 5 5 + J @X[.|.u.7 8 0 3 @ +   @ @   @ @ ;.$X$X>X$Xf.  A.&X&XOXeXeX`.OXyXBXu.7 z > a =.H A 5 , s d >   o ",
"f b U 0 I j = 2 o O , f , O   f.}.|.[.J   o O o + + + g   @ @ # D eX|.$X;Xu.  a.;X:X%X|.].`.$XeXMXgX#.: 5 o X   @ O o a a 1 #   ",
"`.g.F N o c 8 o $.D @ t 7 O H :.l g + + x $.: + 1 + 1 < ;.8   S D 3.c _.;.8   L.wX$X}.f.7XxX>XiXyXBX`.  8 q.r i u X : d > > @ p.",
"g.>.G @.= N 7   ;.v j N j @ ;.j   + 1 + h t.: + 6 1 + + s.7 # 6 g a.iXl   @   p.7X$X}.&XrXcX:.;XaXnXVXG X +X6X5X6X] # @ > 1 > [.",
"m <.<.3   X c   $.e V v G v :.a o + # 1 z =.  1 g S + g d.2 1 @   `.BXH o @   a.:X'.*X|.wXBXS :.CXlXBX*Xr E.5X6X6XW ; N g > 5 d.",
"& U %.$ . X 5 N ~ e.2.* i e.{.g 5 + + -.qX$.o < #XqX;._.d.;.O.8   ;.BX$.o 2 @ :.;XwX:X}.aXVX`.< `.gXgXMX+X5X6X9X6XQ.^ 3.J H {.&.",
"$ $ P $ = 8 7 &.e.2XT.* K.e.3.x 6 1 o -.-X=.: h #X{.d._.u.5 6 1   p.BX;.2 t   p.BXMXrXOXpXBX-Xg u pXeXMXhX5X~.~.~.9X0.~ e @XtX:.",
"B . 8 J O 8 < Q 2X9X5XG.5X+X~ #.O.J O.g _.$.5 h h S h O.u.+ # g J :.BX'.o 8   $.jXpXaX|.qXVX|.5 5 wXzXaXjX5X~.H.^.6XM./ j ).{.).",
"X 3 : : $.v D 2.5XH.E.2X2XR.^ $.#.+.y.g {.O.o 6 O.h 1 S :.@ 8 #.&.e eXwX@ 8 o n aXbXyX|.3XBX$Xo g s.sXaXmX4X5X/.^.6XE.T j 5 t.0X",
"  a a @ N u J.2XQ.H.S.^ T.5X4.&.:.-.:.+.d.:.u.u.f.d.-.u.:.H u.3.#.Q eXbX;.o 2 j sXcXpX$X;XMX|.  + @ p.cXcXhX6X!.!.^.6XW * a -.).",
"+ < 5 2 t ; i +XQ.5XJ.V Y.6XK.L.`._.u.d.u.A.#X{.`.`.'._.:._.'.A.`.a.aXVXf.  2 = tXvXaX:X$XyX}.#.#.J $.sXcXhX6XH.H.H.H.F.r x +._.",
"o 5 a 2 < X 4.5XE.2X4X].J.+XhXvXvXiXpXxXsXiXwX-X%X%X&X$X$X%X$X$X'.L.gXbXd.  @ @ |.xXtX:X;XpX;X|.%XOXOXtXdXkX9XE.(. .W T.a.u.'.XX",
"  8 j @ + e 4X8X+XE.I.L.a.A.OXOX-X-X>XeXrXgXsXrXrXgXsXpXcXaXxXcXrX$.bXBX}.o @   u.MXyX3X}.eXf.H $.&.e.7XhXNXkX~.H.H.| / 3.:.&.q.",
"# < z o > x p.e.J.~ V E #.$.J E #.f.}.$X}.'.eXwX7XsXxXaXpXxXjXbX].:.gXaX|.o ;.|.;X`.:.].|.%XJ < 7 * *.kXkX5X<X6X^.^.5X+X7XeXf.N ",
"+ o ..a s Z e t E N N 7 d.0X[.d.;.`.`.}.%Xd.$X%X$X|.&X;XeXpXeXaX`.v wXcX|.a.vXVXMXeXq.a.`.=XC j j v B I.<XU.U.W.~.^.E.8X:X&Xa.l ",
"# o ..X.S S C x e j e z =XCXqX|.`.;X;.).uXsXsXaX>X%X#X}.>X>XwXpX#.@ xXpX;XsXbXxXbXeXf.}.$X|.J 6 a v B L <X<X<XW.6X6X5X4X'.a.;.n ",
"# + s Z h z z z j j 5 t.lXlX>X_._.>X..|.VXzXbXnXsX0XwX;X$X%XqXbX&X`.eXyXeXbXcXxXMXaXa.`.eX>Xc g h 7 9 Q +Xh..X<XE.9XhXkX7Xf.f.&X",
"  + h s a x z z g g 6 s.nXsX>X_.d.=XO.#Xd.>XCX$XwXqXqX-X=X#XrXbXvXsXjXsXyXpXsXaXvXaX].`.eX;Xx S z H F j..XP.w.1.U.J.q.*XsXp.$.q.",
"  : s z ..g z z g j 5 ).nXzXrX[.).=Xt.d.$.).#Xh d.d.x =.=X0XnXxXjXpX&XpXpXaXxXbXMXbX|.'.sX'.6 z O.uXu.0 q L j.,.p G N ;.u.;.$.:.",
"o 6 a t.=.s z s g z d [.CXaXqX[.$.>X$.$.).y.y.{.t.....z @XzXCXbXaX'.|.yXaXbXcXbXMXjX%X`.xXf.5 5 #XBX[.f k L w.B k l c v j Z c z ",
"> s z %X@XZ s z h z d @XVXlXqX[...{.=...+.d.O.Z $...-X=.[.bXuX;X$X:X%X&XxXxXcX'.:.yX*X`.aX:.5 u.{.VXwXZ c k b y D z C S C S C Z ",
"..5 O.uXiXC 6 6 6 a s =XCXlXqX@XZ o y.y.-X>Xt.uX=X=.>X=.;XaXrXpXsXtX:X;XxXjXxX%Xu.cX$X'.xX$.u.BX@XCXCX..j c l l S S S S C Z S Z ",
"a < j p.A.j 2 4 e 8 6 qXCXlX>X=X).O.rXf.1 @Xd.O.d.$._.J rXcXvXvXbX7X}.`.pXxXbX}.;XMX$X|.eX;.).BX>X0XBXs.s S S c x S c c C Z Z z ",
"4 4 e M r r u ; ; * u :XmXcX>X-X-XsXsXuX0XVX>Xt.%XD 2 ;.xXxXyX7XOXOX|.a.OXxXBXj.&XMX}.'.>XiX|.zXrX$XBX{.a Z h S S C x S J C z z ",
"2.~ ^ _ _ ~ ~ ~ R i u R &.3.3.q.p.%XaXMXBXVXVXBX>X$.&X>XMXwX:X7XtX7X'.:.`.MXcX;XwXxXOX}.>XzX$XuXVX|.BXrXZ Z X.Z Z Z C C c c v v ",
"2.2.5.5.{ { 5.2._ 5._ ^ / T i i u M ~ q.L.XX3XyX3Xf.jXaXnXeXxXpXOXf.f.f.$XbXbXVXVXVXNXbX:X$.{.>Xp.|.%X-XJ h Z S Z Z Z c c v j j ",
"7.8.8.8.8.6.5.{ { { { { 5.5.5.5._ ^ / R V i M R ~ *.q.sXVXdX,X XL.].'.}.7XjXjXyX1X,X1XdXfX;XuX=X#X;Xs.t.$.z Z Z S S C c x j t t ",
"7.8.8.8.8.8.8.8.m.8.5.{ { { [ _ { { 5.6.4.4._ _ / W p ,X1X XP.oXOX:X*XtX,X,XfXP.j.h.w.j.dXOX|.nX[.uX=XlXlXs.h Z Z Z z z z j j j ",
"T.Y.K.D.V.M.m.8.7.8.7.M.m.8.5.5.} { [ [ 5.5.5.{ } [ S.I.( L / / B *.7XNXJ.^ h.k.U.<X.Xj..XyXeXeX=XnX[.0XiX).s Z z Z z z z g g g ",
"m.Z.K.T.T.T.Y.K.D.V.m.7.7.7.m.N.m.m.9.9.0.6.{ { ' | F.h.! Y ! w ; Q e.+X6.W W h.W.W.<X.Xj.! Q Q L.a.:X;XiXu.8 z z z x z Z z h a ",
"} } } } c.Z.C.Y.T.Y.Y.Y.Y.C.Z.m.Z.Z.V.S.S.B.B.B.N.0.h.P.w.Y K w ^ e.4._ [ | ] h.k.h..X<XP.L i i i i i V &.E M u e t g j z h a a ",
"c.c.c.c.` ` } } } } Z.C.Y.R.R.R.D.C.V.M.0.M.B.V.S.0.S.j.1.L p p r.M.5.8.{ [ | | h.( U..X.X4.4._ _ ^ / ~ T R / / R V M M v j e 8 ",
"x.x.c.v.c.c.c.c.m.v.c.x.} x.m.Z.D.Y.T.T.Y.K.V.m.N.M.r.,.L m y 4.S.M.M.M.M.9.| 0.w.1.j..XP.r.2._ [ { 6.[ 6.6._ _ _ ^ ~ / E R V i ",
"l.x.v.v.v.v.v.v.b.c.c.c.c.c.c.x.l.x.b.Z.C.D.D.G.Y.D.J.r.P I %.I.M.N.Z.Z.M.M.B.0.e.w.i. X*X8X5._ 5.{ { 7.7.7.M.M.M.M.0.9.6.[ ^ / ",
"v.v.v.v.x.v.v.x.c.v.b.b.b.b.Z.b.b.b.x.x.x.c.v.v.c.Z.R.8X Xf.|.8XM.} [ } M.M.B.B.e.L.3XjXNXNXR.{ 7.9.7.9.M.7.9.} } N.N.N.M.9.9.M.",
"b.x.x.x.b.v.x.x.x.x.x.b.x.x.b.b.b.b.b.x.x.c.x.l.z.) V.hXtX3X3X8XoXD.D.V.M.} 7.8.2.oXpXiXcXNXhXe.6.0.0.M.M.M.M.N.N.9.} } 9.9.9.} ",
"x.z.z.x.x.x.x.z.x.z.z.x.x.x.x.x.n.b.b.b.b.b.v.x.v.c.C.hXgXtX3X8XT.N.S.S.D.G.D.V.m.e.tXaXxXcXMXI.8.M.0.9.B.M.M.M.N.N.M.M.9.9.9.6.",
"` ` ) ` ` ) ` ` x.` ` x.x.c.v.x.x.x.x.x.x.x.x.x.x.c.m.tXgXwX-X3XK.' 7.} c.} Z.G.T.V.jXsXsXxXVXoX_ } 7.9.M.M.M.B.M.B.S.B.B.B.0.0.",
") ) ` x.` ) ) ) ` ` x.x.x.c.c.c.v.x.x.x.} x.x.l.x.c.8.8XjX&X;X4XC.) } c.c.` ) ) ) 7.8XjXxXxXbX*X8.} ] ] _ 8.M.M.B.V.S.B.B.B.B.B.",
") ) ` c.x.` ` ` ` ` x.x.x.x.c.x.c.v.b.x.x.x.x.z.b.b.{ 8XjXXX}.oXm.b.Z.Z.v.l.n.z.} ] +XsX`.wXmXtXK.R.R.K.B.5.{ _ 6.0.0.9.} 9.0.B.",
"} ` ` ` ` ` } c.) ) ) ` ` ` ` ` x.c.b.` } x.z.) ) } { +XkX'.u.J.m.n.l.v.l.v.n.z.x.[ J.yX#.XXmX3X_ { 8.D.R.+XoXY.S.B.9.} 9.N.9.| "
};
